<svg height="425.119" viewBox="0 0 444.771 318.839" width="593.028" xmlns="http://www.w3.org/2000/svg" xmlns:xlink="http://www.w3.org/1999/xlink"><defs><style>*{stroke-linecap:butt;stroke-linejoin:round}</style></defs><g id="figure_1"><path d="M0 318.84h444.771V0H0z" fill="none" id="patch_1"/><g id="axes_1"><path d="M43.826 291.692h357.12V25.579H43.826z" fill="none" id="patch_2"/><g id="matplotlib.axis_1"><g id="xtick_1"><path clip-path="url(#p7dc5f8d2bf)" d="M43.826 291.692V25.579" fill="none" stroke="#969696" stroke-linecap="square" stroke-width=".3" id="line2d_1"/><g id="line2d_2"><defs><path d="M0 0v3.5" id="mbe6b329e92" stroke="#969696" stroke-width=".4"/></defs><use x="43.826" xlink:href="#mbe6b329e92" y="291.692" fill="#969696" stroke="#969696" stroke-width=".4"/></g><g id="text_1"><defs><path d="M42.484 34.188q0 14.109-3.734 21.156-3.734 7.062-10.969 7.062-7.078 0-10.89-7.062-3.797-7.047-3.797-21.157 0-13.671 3.75-20.937Q20.609 6 27.78 6q7.235 0 10.969 7 3.734 7.016 3.734 21.188zm9.422 0q0-17.297-6.25-26.704-6.25-9.39-17.875-9.39-12.062 0-18.062 9.734-6 9.75-6 26.36 0 17.03 6.14 26.578 6.157 9.547 17.922 9.547 11.625 0 17.875-9.5t6.25-26.626z" id="HelveticaWorld-Regular-48"/></defs><use xlink:href="#HelveticaWorld-Regular-48" transform="matrix(.14 0 0 -.14 39.933 308.74)" fill="#969696"/></g></g><g id="xtick_2"><path clip-path="url(#p7dc5f8d2bf)" d="M124.99 291.692V25.579" fill="none" stroke="#969696" stroke-linecap="square" stroke-width=".3" id="line2d_3"/><use x="124.989" xlink:href="#mbe6b329e92" y="291.692" fill="#969696" stroke="#969696" stroke-width=".4" id="line2d_4"/><g id="text_2"><defs><path d="M35.89 0h-9.374v49.906H10.109v6.985q8.594.28 12.782 2.75Q27.094 62.109 29 70.313h6.89z" id="HelveticaWorld-Regular-49"/></defs><use xlink:href="#HelveticaWorld-Regular-49" transform="matrix(.14 0 0 -.14 121.097 308.74)" fill="#969696"/></g></g><g id="xtick_3"><path clip-path="url(#p7dc5f8d2bf)" d="M206.153 291.692V25.579" fill="none" stroke="#969696" stroke-linecap="square" stroke-width=".3" id="line2d_5"/><use x="206.153" xlink:href="#mbe6b329e92" y="291.692" fill="#969696" stroke="#969696" stroke-width=".4" id="line2d_6"/><g id="text_3"><defs><path d="M4.39 45.125q0 12.39 6.391 18.781 6.406 6.407 17.938 6.407 9.656 0 15.812-5.86 6.157-5.86 6.157-15.14 0-7.22-3.547-12.188-3.532-4.953-10.422-8.703l-12.11-6.64Q13.922 15.921 12.5 8.296h38.188V0H2.593q.39 9.906 4.297 16.5 3.906 6.594 12.203 11.375l12.593 7.328q5.032 2.89 7.329 5.984 2.297 3.094 2.297 8.516 0 5.375-3.766 9.031-3.75 3.672-10.156 3.672-7.078 0-10.594-4.672-3.516-4.656-3.61-12.609z" id="HelveticaWorld-Regular-50"/></defs><use xlink:href="#HelveticaWorld-Regular-50" transform="matrix(.14 0 0 -.14 202.26 308.74)" fill="#969696"/></g></g><g id="xtick_4"><path clip-path="url(#p7dc5f8d2bf)" d="M287.317 291.692V25.579" fill="none" stroke="#969696" stroke-linecap="square" stroke-width=".3" id="line2d_7"/><use x="287.317" xlink:href="#mbe6b329e92" y="291.692" fill="#969696" stroke="#969696" stroke-width=".4" id="line2d_8"/><g id="text_4"><defs><path d="M22.406 39.984q2.203-.187 4.594-.187 6.203 0 9.781 2.86 3.594 2.859 3.594 8.656 0 4.687-3.344 7.89-3.343 3.203-9.64 3.203-6.985 0-10.235-4.11-3.234-4.093-3.437-10.983h-8.64q0 10.984 5.765 16.984 5.765 6.016 16.937 6.016 9.922 0 15.828-5.11 5.907-5.094 5.907-13.39 0-10.704-9.032-14.5v-.204q11.72-4 11.72-16.406 0-9.906-6.595-16.265-6.593-6.344-18.703-6.344-9.906 0-16.312 5.203Q4.204 8.5 3.422 21.484H12.5q.203-8.109 4-11.797Q20.313 6 27.484 6q6.938 0 11.141 3.86 4.203 3.859 4.203 9.718 0 6.406-4.016 9.672-4 3.266-12.39 3.266-2 0-4.016-.094z" id="HelveticaWorld-Regular-51"/></defs><use xlink:href="#HelveticaWorld-Regular-51" transform="matrix(.14 0 0 -.14 283.424 308.74)" fill="#969696"/></g></g><g id="xtick_5"><path clip-path="url(#p7dc5f8d2bf)" d="M368.48 291.692V25.579" fill="none" stroke="#969696" stroke-linecap="square" stroke-width=".3" id="line2d_9"/><use x="368.48" xlink:href="#mbe6b329e92" y="291.692" fill="#969696" stroke="#969696" stroke-width=".4" id="line2d_10"/><g id="text_5"><defs><path d="M10.594 24.703h22.61v31.89h-.188zM42 17.093V0h-8.797v17.094H2.484v8.593L34.72 70.314H42v-45.61h10.297v-7.61z" id="HelveticaWorld-Regular-52"/></defs><use xlink:href="#HelveticaWorld-Regular-52" transform="matrix(.14 0 0 -.14 364.588 308.74)" fill="#969696"/></g></g></g><g id="matplotlib.axis_2"><g id="ytick_1"><path clip-path="url(#p7dc5f8d2bf)" d="M43.826 274.076h357.12" fill="none" stroke="#969696" stroke-linecap="square" stroke-width=".3" id="line2d_11"/><g id="line2d_12"><defs><path d="M0 0h-3.5" id="m3f5a3b5a67" stroke="#969696" stroke-width=".3"/></defs><use x="43.826" xlink:href="#m3f5a3b5a67" y="274.076" fill="#969696" stroke="#969696" stroke-width=".3"/></g><g id="text_6"><defs><path d="M54.594 21.578H4v7.328h50.594z" id="HelveticaWorld-Regular-8722"/></defs><g transform="matrix(.14 0 0 -.14 20.837 279.1)" fill="#969696"><use xlink:href="#HelveticaWorld-Regular-8722"/><use x="58.594" xlink:href="#HelveticaWorld-Regular-51"/></g></g></g><g id="ytick_2"><path clip-path="url(#p7dc5f8d2bf)" d="M43.826 230.037h357.12" fill="none" stroke="#969696" stroke-linecap="square" stroke-width=".3" id="line2d_13"/><use x="43.826" xlink:href="#m3f5a3b5a67" y="230.037" fill="#969696" stroke="#969696" stroke-width=".3" id="line2d_14"/><g transform="matrix(.14 0 0 -.14 20.837 235.062)" fill="#969696" id="text_7"><use xlink:href="#HelveticaWorld-Regular-8722"/><use x="58.594" xlink:href="#HelveticaWorld-Regular-50"/></g></g><g id="ytick_3"><path clip-path="url(#p7dc5f8d2bf)" d="M43.826 185.998h357.12" fill="none" stroke="#969696" stroke-linecap="square" stroke-width=".3" id="line2d_15"/><use x="43.826" xlink:href="#m3f5a3b5a67" y="185.998" fill="#969696" stroke="#969696" stroke-width=".3" id="line2d_16"/><g transform="matrix(.14 0 0 -.14 20.837 191.023)" fill="#969696" id="text_8"><use xlink:href="#HelveticaWorld-Regular-8722"/><use x="58.594" xlink:href="#HelveticaWorld-Regular-49"/></g></g><g id="ytick_4"><path clip-path="url(#p7dc5f8d2bf)" d="M43.826 141.96h357.12" fill="none" stroke="#969696" stroke-linecap="square" stroke-width=".3" id="line2d_17"/><use x="43.826" xlink:href="#m3f5a3b5a67" y="141.959" fill="#969696" stroke="#969696" stroke-width=".3" id="line2d_18"/><use xlink:href="#HelveticaWorld-Regular-48" transform="matrix(.14 0 0 -.14 29.04 146.984)" fill="#969696" id="text_9"/></g><g id="ytick_5"><path clip-path="url(#p7dc5f8d2bf)" d="M43.826 97.92h357.12" fill="none" stroke="#969696" stroke-linecap="square" stroke-width=".3" id="line2d_19"/><use x="43.826" xlink:href="#m3f5a3b5a67" y="97.921" fill="#969696" stroke="#969696" stroke-width=".3" id="line2d_20"/><use xlink:href="#HelveticaWorld-Regular-49" transform="matrix(.14 0 0 -.14 29.04 102.945)" fill="#969696" id="text_10"/></g><g id="ytick_6"><path clip-path="url(#p7dc5f8d2bf)" d="M43.826 53.882h357.12" fill="none" stroke="#969696" stroke-linecap="square" stroke-width=".3" id="line2d_21"/><use x="43.826" xlink:href="#m3f5a3b5a67" y="53.882" fill="#969696" stroke="#969696" stroke-width=".3" id="line2d_22"/><use xlink:href="#HelveticaWorld-Regular-50" transform="matrix(.14 0 0 -.14 29.04 58.906)" fill="#969696" id="text_11"/></g></g><path clip-path="url(#p7dc5f8d2bf)" d="M43.826 97.92H400.946" fill="none" stroke="#1f77b4" stroke-linecap="square" stroke-width="1.5" id="line2d_23"/><path clip-path="url(#p7dc5f8d2bf)" d="M43.826 97.92l3.607 1.958 3.607 1.957 3.608 1.957 3.607 1.958 3.607 1.957 3.607 1.957 3.608 1.958 3.607 1.957 3.607 1.957 3.607 1.957 3.608 1.958 3.607 1.957 3.607 1.957 3.608 1.958 3.607 1.957 3.607 1.957 3.607 1.957 3.608 1.958 3.607 1.957 3.607 1.957 3.607 1.958 3.608 1.957 3.607 1.957 3.607 1.957 3.608 1.958 3.607 1.957 3.607 1.957 3.607 1.958 3.608 1.957 3.607 1.957 3.607 1.957 3.607 1.958 3.608 1.957 3.607 1.957 3.607 1.957 3.608 1.958 3.607 1.957 3.607 1.957 3.607 1.958 3.608 1.957 3.607 1.957 3.607 1.957 3.607 1.958 3.608 1.957 3.607 1.957 3.607 1.958 3.608 1.957 3.607 1.957 3.607 1.957 3.607 1.958 3.608 1.957 3.607 1.957 3.607 1.958 3.607 1.957 3.608 1.957 3.607 1.957 3.607 1.958 3.608 1.957 3.607 1.957 3.607 1.958 3.607 1.957 3.608 1.957 3.607 1.957 3.607 1.958 3.607 1.957 3.608 1.957 3.607 1.957 3.607 1.958 3.608 1.957 3.607 1.957 3.607 1.958 3.607 1.957 3.608 1.957 3.607 1.957 3.607 1.958 3.607 1.957 3.608 1.957 3.607 1.958 3.607 1.957 3.608 1.957 3.607 1.957 3.607 1.958 3.607 1.957 3.608 1.957 3.607 1.958 3.607 1.957 3.607 1.957 3.608 1.957 3.607 1.958 3.607 1.957 3.608 1.957 3.607 1.958 3.607 1.957 3.607 1.957 3.608 1.957 3.607 1.958 3.607 1.957 3.607 1.957 3.608 1.958" fill="none" stroke="#ff7f0e" stroke-linecap="square" stroke-width="1.5" id="line2d_24"/><path clip-path="url(#p7dc5f8d2bf)" d="M43.826 97.92l3.607 3.872 3.607 3.784 3.608 3.697 3.607 3.61 3.607 3.523 3.607 3.436 3.608 3.35 3.607 3.261 3.607 3.176 3.607 3.088 3.608 3 3.607 2.915 3.607 2.827 3.608 2.74 3.607 2.654 3.607 2.566 3.607 2.48 3.608 2.391 3.607 2.306 3.607 2.218 3.607 2.131 3.608 2.044 3.607 1.958 3.607 1.87 3.608 1.783 3.607 1.697 3.607 1.609 3.607 1.522 3.608 1.436 3.607 1.348 3.607 1.261 3.607 1.175 3.608 1.087 3.607 1 3.607.914 3.608.826 3.607.74 3.607.652 3.607.565 3.608.479 3.607.391 3.607.305 3.607.217 3.608.13 3.607.044 3.607-.043 3.608-.13 3.607-.218 3.607-.305 3.607-.391 3.608-.479 3.607-.565 3.607-.652 3.607-.74 3.608-.826 3.607-.914 3.607-1 3.608-1.087 3.607-1.175 3.607-1.261 3.607-1.348 3.608-1.436 3.607-1.522 3.607-1.61 3.607-1.696 3.608-1.783 3.607-1.87 3.607-1.958 3.608-2.044 3.607-2.131 3.607-2.218 3.607-2.306 3.608-2.392 3.607-2.48 3.607-2.565 3.607-2.654 3.608-2.74 3.607-2.827 3.607-2.914 3.608-3.001 3.607-3.088 3.607-3.176 3.607-3.262 3.608-3.349 3.607-3.436 3.607-3.523 3.607-3.61 3.608-3.697 3.607-3.784 3.607-3.871 3.608-3.958 3.607-4.045 3.607-4.133 3.607-4.219 3.608-4.306 3.607-4.393 3.607-4.48 3.607-4.567 3.608-4.654" fill="none" stroke="#2ca02c" stroke-linecap="square" stroke-width="1.5" id="line2d_25"/><path clip-path="url(#p7dc5f8d2bf)" d="M43.826 97.92l3.607 5.743 3.607 5.485 3.608 5.231 3.607 4.982 3.607 4.737 3.607 4.495 3.608 4.258 3.607 4.023 3.607 3.794 3.607 3.567 3.608 3.345 3.607 3.126 3.607 2.912 3.608 2.701 3.607 2.495 3.607 2.291 3.607 2.092 3.608 1.898 3.607 1.705 3.607 1.518 3.607 1.335 3.608 1.155 3.607.978 3.607.807 3.608.639 3.607.474 3.607.314 3.607.157 3.608.004 3.607-.144 3.607-.29 3.607-.43 3.608-.567 3.607-.701 3.607-.831 3.608-.956 3.607-1.078 3.607-1.196 3.607-1.31 3.608-1.42 3.607-1.527 3.607-1.629 3.607-1.727 3.608-1.823 3.607-1.913 3.607-2 3.608-2.083 3.607-2.163 3.607-2.238 3.607-2.31 3.608-2.376 3.607-2.441 3.607-2.5 3.607-2.558 3.608-2.609 3.607-2.657 3.607-2.702 3.608-2.743 3.607-2.779 3.607-2.812 3.607-2.84 3.608-2.867 3.607-2.887 3.607-2.905 3.607-2.919 3.608-2.928 3.607-2.933 3.607-2.936 3.608-2.934 3.607-2.928 3.607-2.918 3.607-2.905 3.608-2.888 3.607-2.866 3.607-2.84 3.607-2.813 3.608-2.78 3.607-2.742 3.607-2.701 3.608-2.658 3.607-2.609 3.607-2.557 3.607-2.5 3.608-2.441 3.607-2.378 3.607-2.309 3.607-2.238 3.608-2.162 3.607-2.084 3.607-2 3.608-1.913 3.607-1.822 3.607-1.728 3.607-1.629 3.608-1.526 3.607-1.42 3.607-1.31 3.607-1.196 3.608-1.079" fill="none" stroke="#d62728" stroke-linecap="square" stroke-width="1.5" id="line2d_26"/><path clip-path="url(#p7dc5f8d2bf)" d="M43.826 97.92l3.607 7.571 3.607 7.065 3.608 6.572 3.607 6.097 3.607 5.635 3.607 5.188 3.608 4.756 3.607 4.338 3.607 3.934 3.607 3.545 3.608 3.168 3.607 2.807 3.607 2.457 3.608 2.123 3.607 1.8 3.607 1.49 3.607 1.194 3.608.91 3.607.64 3.607.38 3.607.132 3.608-.103 3.607-.325 3.607-.538 3.608-.737 3.607-.927 3.607-1.105 3.607-1.272 3.608-1.428 3.607-1.573 3.607-1.71 3.607-1.834 3.608-1.95 3.607-2.053 3.607-2.15 3.608-2.236 3.607-2.313 3.607-2.38 3.607-2.438 3.608-2.487 3.607-2.529 3.607-2.56 3.607-2.585 3.608-2.6 3.607-2.61 3.607-2.608 3.608-2.6 3.607-2.586 3.607-2.563 3.607-2.534 3.608-2.497 3.607-2.454 3.607-2.404 3.607-2.348 3.608-2.285 3.607-2.216 3.607-2.142 3.608-2.061 3.607-1.976 3.607-1.884 3.607-1.787 3.608-1.686 3.607-1.579 3.607-1.467 3.607-1.352 3.608-1.231 3.607-1.107 3.607-.979 3.608-.846 3.607-.71 3.607-.57 3.607-.428 3.608-.281 3.607-.132 3.607.02 3.607.174 3.608.331 3.607.491 3.607.653 3.608.816 3.607.981 3.607 1.149 3.607 1.317 3.608 1.487 3.607 1.657 3.607 1.83 3.607 2.002 3.608 2.175 3.607 2.349 3.607 2.523 3.608 2.696 3.607 2.87 3.607 3.045 3.607 3.217 3.608 3.39 3.607 3.562 3.607 3.733 3.607 3.902 3.608 4.071" fill="none" stroke="#9467bd" stroke-linecap="square" stroke-width="1.5" id="line2d_27"/><path clip-path="url(#p7dc5f8d2bf)" d="M43.826 97.92l3.607 9.358 3.607 8.527 3.608 7.731 3.607 6.974 3.607 6.252 3.607 5.565 3.608 4.911 3.607 4.292 3.607 3.704 3.607 3.148 3.608 2.623 3.607 2.128 3.607 1.662 3.608 1.225 3.607.816 3.607.434 3.607.077 3.608-.253 3.607-.56 3.607-.84 3.607-1.1 3.608-1.334 3.607-1.549 3.607-1.74 3.608-1.914 3.607-2.065 3.607-2.198 3.607-2.312 3.608-2.408 3.607-2.487 3.607-2.55 3.607-2.596 3.608-2.626 3.607-2.643 3.607-2.645 3.608-2.634 3.607-2.609 3.607-2.572 3.607-2.523 3.608-2.463 3.607-2.393 3.607-2.311 3.607-2.222 3.608-2.122 3.607-2.014 3.607-1.898 3.608-1.774 3.607-1.645 3.607-1.507 3.607-1.364 3.608-1.217 3.607-1.062 3.607-.905 3.607-.743 3.608-.578 3.607-.408 3.607-.238 3.608-.063 3.607.113 3.607.29 3.607.467 3.608.647 3.607.826 3.607 1.005 3.607 1.183 3.608 1.361 3.607 1.538 3.607 1.712 3.608 1.886 3.607 2.056 3.607 2.224 3.607 2.39 3.608 2.55 3.607 2.71 3.607 2.865 3.607 3.014 3.608 3.16 3.607 3.302 3.607 3.437 3.608 3.569 3.607 3.694 3.607 3.814 3.607 3.927 3.608 4.035 3.607 4.136 3.607 4.23 3.607 4.318 3.608 4.398 3.607 4.47 3.607 4.537 3.608 4.595 3.607 4.645 3.607 4.687 3.607 4.721 3.608 4.747 3.607 4.764 3.607 4.773 3.607 4.773 3.608 4.764" fill="none" stroke="#8c564b" stroke-linecap="square" stroke-width="1.5" id="line2d_28"/><path d="M43.826 291.692V25.579" fill="none" stroke="#969696" stroke-linecap="square" stroke-width=".3" id="patch_3"/><g id="text_12"><defs><path d="M49.219 0h-8.844v32.172q0 7.422-2.594 10.578-2.578 3.156-8.578 3.156-5.906 0-9.875-4.5-3.953-4.484-3.953-12.89V0H6.594v52.297h8.297v-7.375h.203q6.203 8.89 15.812 8.89 8.89 0 13.594-4.718 4.719-4.703 4.719-13.5z" id="HelveticaWorld-Regular-110"/><path d="M54.594 31.578H4v7.328h50.594zm0-20H4v7.328h50.594z" id="HelveticaWorld-Regular-61"/></defs><g transform="matrix(.14 0 0 -.14 404.517 101.496)" fill="#1f77b4"><use xlink:href="#HelveticaWorld-Regular-110"/><use x="55.176" xlink:href="#HelveticaWorld-Regular-61"/><use x="113.77" xlink:href="#HelveticaWorld-Regular-48"/></g></g><g transform="matrix(.14 0 0 -.14 404.517 295.267)" fill="#ff7f0e" id="text_13"><use xlink:href="#HelveticaWorld-Regular-110"/><use x="55.176" xlink:href="#HelveticaWorld-Regular-61"/><use x="113.77" xlink:href="#HelveticaWorld-Regular-49"/></g><g transform="matrix(.14 0 0 -.14 404.517 62.742)" fill="#2ca02c" id="text_14"><use xlink:href="#HelveticaWorld-Regular-110"/><use x="55.176" xlink:href="#HelveticaWorld-Regular-61"/><use x="113.77" xlink:href="#HelveticaWorld-Regular-50"/></g><g transform="matrix(.14 0 0 -.14 404.517 29.155)" fill="#d62728" id="text_15"><use xlink:href="#HelveticaWorld-Regular-110"/><use x="55.176" xlink:href="#HelveticaWorld-Regular-61"/><use x="113.77" xlink:href="#HelveticaWorld-Regular-51"/></g><g transform="matrix(.14 0 0 -.14 404.517 131.983)" fill="#9467bd" id="text_16"><use xlink:href="#HelveticaWorld-Regular-110"/><use x="55.176" xlink:href="#HelveticaWorld-Regular-61"/><use x="113.77" xlink:href="#HelveticaWorld-Regular-52"/></g><g id="text_17"><defs><path d="M14.703 40.922q5.813 4.39 13.625 4.39 9.469 0 16.281-6.296 6.813-6.297 6.813-16.22 0-10.78-6.578-17.796-6.563-7-18.422-7-10.313 0-16.266 5.047Q4.203 8.109 3.22 17.39h9.094q.671-5.672 4.437-8.672 3.766-3 10.453-3 6.485 0 10.64 4.484Q42 14.703 42 21.688q0 7.125-4.36 11.421-4.343 4.297-11.218 4.297-7.813 0-13.047-6.687l-7.563.39 5.266 37.594h36.438v-8.5H17.672z" id="HelveticaWorld-Regular-53"/></defs><g transform="matrix(.14 0 0 -.14 404.517 226.17)" fill="#8c564b"><use xlink:href="#HelveticaWorld-Regular-110"/><use x="55.176" xlink:href="#HelveticaWorld-Regular-61"/><use x="113.77" xlink:href="#HelveticaWorld-Regular-53"/></g></g><g id="text_18"><defs><path d="M29.781 73.297q-8.875-15.875-11.218-25.844-2.344-9.953-2.344-21.969 0-11.859 3.187-22.125Q22.61-6.89 29.891-20.703h-5.86Q15.72-8.593 11.25 2.187 6.781 12.985 6.781 26.125q0 12.36 4.047 23.563 4.063 11.203 12.86 23.609z" id="HelveticaWorld-Regular-40"/><path d="M38.484 38.375h31.532V0h-6.297l-2.344 9.281Q56.781 3.421 50.578.75q-6.187-2.656-12.875-2.656-10.797 0-18.047 4.703-7.25 4.719-11.265 13.015-4 8.313-4 20.72 0 15.468 9.203 26.312 9.203 10.843 24.781 10.843 11.625 0 20.313-6.5Q67.39 60.688 68.796 50h-9.375q-1.703 7.078-7.219 11.078-5.516 4.016-14.312 4.016-10.594 0-17.047-7.985-6.438-7.984-6.438-21.125 0-15.28 6.39-22.437Q27.204 6.39 38.282 6.39q7.235 0 12.235 2.859 5 2.86 7.687 7.766 2.688 4.906 2.688 13.062H38.484z" id="HelveticaWorld-Regular-71"/><path d="M42.484 30.328q-.687 8.485-4.5 12.031-3.797 3.547-10.109 3.547-6.39 0-10.328-4.5-3.922-4.484-4.172-11.078zm8.391-13.922q-1.453-8.11-7.953-13.422-5.719-4.5-15.047-4.593-10.984.093-17.438 7.203Q4 12.704 4 24.704q0 13.78 6.64 21.437 6.641 7.672 18.47 7.672 10.593 0 16.546-7.922 5.953-7.907 5.953-22.594H13.375q0-8.203 3.813-12.703Q21 6.109 28.608 6.109q5.375 0 9.235 3.235 3.86 3.25 4.25 7.062z" id="HelveticaWorld-Regular-101"/><path d="M15.375 0H6.594v52.297h8.297v-8.688h.203q5.703 10.203 14.687 10.203 1.422 0 2.297-.296V44.39h-3.266q-5.906 0-9.671-4.016-3.766-4-3.766-9.953z" id="HelveticaWorld-Regular-114"/><path d="M38.375 26.703q-.969-1.015-3.828-1.656-2.86-.625-10.672-1.656-5.766-.688-8.469-2.844-2.703-2.14-2.703-5.656 0-4.297 2.281-6.688 2.297-2.39 7.329-2.39 6.296 0 11.171 3.578 4.891 3.593 4.891 8.718zM6.203 36.375q.297 8.844 5.734 13.14 5.454 4.297 15.844 4.297 8.297 0 13.907-3.765 5.624-3.75 5.624-10.844V9.078Q47.313 6 50.094 6q1.125 0 2.89.39V0Q50.594-.984 48-.984q-4.5 0-6.703 1.921-2.188 1.938-2.281 6.047-7.516-8.5-18.891-8.5-7.422 0-11.922 4.204Q3.72 6.89 3.72 13.624q0 6.89 3.906 11.125Q11.531 29 19 29.89l15.516 1.891q4.203.64 4.203 6.203 0 4.11-3.047 6.297-3.047 2.203-9.25 2.203-5.516 0-8.485-2.437-2.953-2.438-3.53-7.672z" id="HelveticaWorld-Regular-97"/><path d="M15.375 0H6.594v71.781h8.781z" id="HelveticaWorld-Regular-108"/><path d="M6.594 61.813v9.968h8.781v-9.969zM15.375 0H6.594v52.297h8.781z" id="HelveticaWorld-Regular-105"/><path d="M14.11 7.328h32.187V0H2.39v6.89l31.64 38.126H4.938v7.28h40.374v-7.171z" id="HelveticaWorld-Regular-122"/><path d="M13.094 26.313q0-9.704 3.844-14.954 3.859-5.25 10.265-5.25 6.094 0 10.188 4.485 4.109 4.5 4.109 13.094 0 11.03-3.5 16.625-3.484 5.593-10.61 5.593-6.78 0-10.546-4.453-3.75-4.437-3.75-15.14zM50.39 0h-8.297v7.172h-.203q-4.97-8.688-15.078-8.688-10.891 0-16.86 8.297Q4 15.094 4 27.688q0 11.625 5.906 18.875 5.922 7.25 15.875 7.25 9.813 0 15.625-8.891l.203.594V71.78h8.782z" id="HelveticaWorld-Regular-100"/><path d="M3.516-20.703q8.796 15.922 11.14 25.86Q17 15.093 17 27.093q0 11.922-3.156 22.172T3.422 73.296h5.765q8.391-12.109 12.86-22.905 4.469-10.797 4.469-23.875 0-12.407-4.063-23.61-4.047-11.203-12.828-23.61z" id="HelveticaWorld-Regular-41"/><path d="M17.672 8.594h36.531V0H8.11v71.781h9.563z" id="HelveticaWorld-Regular-76"/><path d="M12.984 26.313q0-9.61 3.813-14.907Q20.609 6.11 27.094 6.11q6.312 0 10.312 4.579 4 4.593 4 13 0 11.03-3.5 16.625-3.484 5.593-10.61 5.593-7.171 0-10.75-4.765-3.562-4.766-3.562-14.828zM49.812 2.983q0-12.609-6.062-18.797-6.047-6.203-18.266-6.203-8.78 0-13.984 4.047Q6.297-13.922 5.516-6.39h8.796q.672-3.812 3.532-6.062 2.86-2.25 8.281-2.25 7.375 0 11.125 3.969 3.766 3.953 3.766 12.828v3.719h-.188q-4.937-7.329-13.922-7.329-11.187 0-17.093 8.25-5.907 8.25-5.907 20.953 0 11.625 5.953 18.875 5.97 7.25 15.829 7.25 9.906 0 15.625-8.89h.187v7.375h8.313z" id="HelveticaWorld-Regular-103"/><path d="M6.11 52.297h8.78V17.578q0-5.765 2.61-8.625Q20.125 6.11 25 6.11q6.781 0 10.594 4.797 3.812 4.813 3.812 12.578v28.813h8.782V0H39.89v7.625l-.188.188q-4.984-9.329-16.61-9.329-7.515 0-12.25 4.094Q6.11 6.688 6.11 14.703z" id="HelveticaWorld-Regular-117"/><path d="M14.984 23.688q0-8.407 4.094-13 4.11-4.579 10.219-4.579 6.687 0 10.39 5.438 3.72 5.453 3.72 14.765 0 10.22-3.563 14.907-3.563 4.687-10.735 4.687-6.984 0-10.562-5.5-3.563-5.5-3.563-16.718zm-8.39 28.609h8.297v-7.375h.203q5.61 8.89 15.625 8.89 10.11 0 15.937-7.359 5.828-7.344 5.828-18.766 0-12.796-5.953-21Q40.578-1.515 29.5-1.515q-9.094 0-13.922 7.032h-.203v-26.22H6.594z" id="HelveticaWorld-Regular-112"/><path d="M12.703 26.219q0-8.735 3.953-14.375 3.953-5.64 11.219-5.64 7.531 0 11.438 5.905 3.906 5.907 3.906 14.11 0 8.297-3.907 14.078-3.906 5.797-11.437 5.797-6.969 0-11.078-5.453-4.094-5.438-4.094-14.422zm-8.984 0q0 11.672 6.484 19.625 6.5 7.968 17.672 7.968 11.438 0 17.875-8.062 6.453-8.047 6.453-19.531 0-11.516-6.406-19.625-6.39-8.11-17.922-8.11-11.078 0-17.625 7.86-6.531 7.86-6.531 19.875z" id="HelveticaWorld-Regular-111"/><path d="M39.016 52.297h9.562L29.891.984q-.5-1.375-.985-2.593-4.25-11.329-7.328-15.547-3.078-4.235-9.953-4.235-3.61 0-5.906.782v8.015q2.484-.89 5.468-.89 3.22 0 4.704 2.03 1.5 2.032 4.421 9.938L.875 52.297h9.922L24.812 9.719H25z" id="HelveticaWorld-Regular-121"/><path d="M6.594 52.297h8.297v-7.375h.203q5.906 8.89 15.812 8.89 9.813 0 13.922-8.5 3.75 4.594 7.266 6.547 3.515 1.953 8.703 1.953 6.781 0 11.484-4.453Q77 44.922 77 36.187V0h-8.781v33.797q0 6.094-2.297 9.094-2.297 3.015-7.422 3.015-5.172 0-8.75-4.203-3.563-4.203-3.563-9.812V0h-8.78v36.188q0 4.53-2.11 7.124-2.094 2.594-6.094 2.594-6.297 0-10.062-4.687-3.766-4.688-3.766-12.703V0H6.594z" id="HelveticaWorld-Regular-109"/><path d="M36.078 37.406q-.187 4.688-3.344 6.735-3.14 2.047-9.047 2.047-4.296 0-7.359-1.907-3.047-1.89-3.047-5.468 0-2.829 1.797-4.172 1.813-1.344 7.828-2.86l8.688-2.187q7.906-2 11.297-5.11 3.406-3.093 3.406-8.656 0-7.719-5.64-12.531-5.641-4.813-15.063-4.813-11 0-16.64 4.563-5.626 4.578-5.735 13.75h8.5q.203-5.422 3.594-8.063 3.39-2.625 10.171-2.625 5.516 0 8.766 2.188 3.25 2.203 3.25 6.11 0 2.78-2.11 4.437-2.093 1.672-8.296 3.078l-10.203 2.5q-6.203 1.562-9.157 4.656-2.953 3.094-2.953 8.031 0 7.72 5.516 12.203 5.531 4.5 14.406 4.5 9.485 0 14.531-4.624 5.047-4.61 5.344-11.782z" id="HelveticaWorld-Regular-115"/><path d="M41.89 26.703q0 7.922-3.859 13.61Q34.188 46 27.484 46q-6.875 0-10.687-5.297-3.813-5.297-3.813-14.094 0-9.328 3.954-14.922 3.968-5.578 10.75-5.578 6.296 0 10.25 6.25 3.953 6.25 3.953 14.344zm8.891-15.719q0-2.187.563-3.203.562-1 2.375-1 1.36 0 2.781.297V-.484q-1.719-.641-5.078-.641-4.016 0-6.484 2.219-2.454 2.234-2.75 7.89h-.297q-2.188-4.78-6.688-7.687-4.484-2.906-10-2.906-9.484 0-15.39 7.765-5.907 7.766-5.907 19.532 0 12.593 6 20.359 6.016 7.766 16.313 7.766 9.86 0 15.578-9.813H42v8.297h8.781z" id="HelveticaWorld-Regular-945"/><path d="M8.688 10.594h10.406V.78q0-7.422-3.078-11.172-3.078-3.765-7.328-4.312v4.594Q14.015-9.422 14.015 0H8.687z" id="HelveticaWorld-Regular-44"/><path d="M39.594 34.719q-1.89 11.187-12.39 11.187-6.5 0-10.454-5.203-3.953-5.203-3.953-14.484 0-10.11 3.656-15.11 3.672-5 10.64-5 4.688 0 8.11 3.438 3.422 3.437 4.39 8.953h8.5q-1.312-9.703-6.859-14.86-5.547-5.156-14.328-5.156-10.297 0-16.89 7.047-6.594 7.063-6.594 19.172 0 13.281 6.594 21.188 6.593 7.922 18.5 7.922 8.687 0 13.843-5.204 5.157-5.203 5.735-13.89z" id="HelveticaWorld-Regular-99"/></defs><g transform="matrix(.168 0 0 -.168 7.2 19.58)" fill="#969696"><use xlink:href="#HelveticaWorld-Regular-40"/><use x="33.301" xlink:href="#HelveticaWorld-Regular-71"/><use x="110.4" xlink:href="#HelveticaWorld-Regular-101"/><use x="165.82" xlink:href="#HelveticaWorld-Regular-110"/><use x="220.996" xlink:href="#HelveticaWorld-Regular-101"/><use x="276.416" xlink:href="#HelveticaWorld-Regular-114"/><use x="307.984" xlink:href="#HelveticaWorld-Regular-97"/><use x="362.916" xlink:href="#HelveticaWorld-Regular-108"/><use x="384.938" xlink:href="#HelveticaWorld-Regular-105"/><use x="406.959" xlink:href="#HelveticaWorld-Regular-122"/><use x="454.428" xlink:href="#HelveticaWorld-Regular-101"/><use x="509.848" xlink:href="#HelveticaWorld-Regular-100"/><use x="566.83" xlink:href="#HelveticaWorld-Regular-41"/><use x="600.131" xlink:href="#HelveticaWorld-Regular-32"/><use x="624.545" xlink:href="#HelveticaWorld-Regular-76"/><use x="680.16" xlink:href="#HelveticaWorld-Regular-97"/><use x="735.092" xlink:href="#HelveticaWorld-Regular-103"/><use x="791" xlink:href="#HelveticaWorld-Regular-117"/><use x="845.785" xlink:href="#HelveticaWorld-Regular-101"/><use x="901.205" xlink:href="#HelveticaWorld-Regular-114"/><use x="933.773" xlink:href="#HelveticaWorld-Regular-114"/><use x="965.342" xlink:href="#HelveticaWorld-Regular-101"/><use x="1020.762" xlink:href="#HelveticaWorld-Regular-32"/><use x="1045.176" xlink:href="#HelveticaWorld-Regular-112"/><use x="1101.67" xlink:href="#HelveticaWorld-Regular-111"/><use x="1157.578" xlink:href="#HelveticaWorld-Regular-108"/><use x="1179.6" xlink:href="#HelveticaWorld-Regular-121"/><use x="1229.209" xlink:href="#HelveticaWorld-Regular-110"/><use x="1284.385" xlink:href="#HelveticaWorld-Regular-111"/><use x="1340.293" xlink:href="#HelveticaWorld-Regular-109"/><use x="1423.301" xlink:href="#HelveticaWorld-Regular-105"/><use x="1445.322" xlink:href="#HelveticaWorld-Regular-97"/><use x="1500.254" xlink:href="#HelveticaWorld-Regular-108"/><use x="1522.275" xlink:href="#HelveticaWorld-Regular-115"/><use x="1572.275" xlink:href="#HelveticaWorld-Regular-32"/><use x="1596.689" xlink:href="#HelveticaWorld-Regular-40"/><use x="1629.99" xlink:href="#HelveticaWorld-Regular-945"/><use x="1688.535" xlink:href="#HelveticaWorld-Regular-61"/><use x="1747.129" xlink:href="#HelveticaWorld-Regular-48"/><use x="1802.744" xlink:href="#HelveticaWorld-Regular-44"/><use x="1830.527" xlink:href="#HelveticaWorld-Regular-32"/><use x="1854.941" xlink:href="#HelveticaWorld-Regular-115"/><use x="1904.941" xlink:href="#HelveticaWorld-Regular-99"/><use x="1956.211" xlink:href="#HelveticaWorld-Regular-97"/><use x="2011.143" xlink:href="#HelveticaWorld-Regular-108"/><use x="2033.164" xlink:href="#HelveticaWorld-Regular-105"/><use x="2055.186" xlink:href="#HelveticaWorld-Regular-110"/><use x="2110.361" xlink:href="#HelveticaWorld-Regular-103"/><use x="2166.27" xlink:href="#HelveticaWorld-Regular-61"/><use x="2224.863" xlink:href="#HelveticaWorld-Regular-110"/><use x="2280.039" xlink:href="#HelveticaWorld-Regular-111"/><use x="2335.947" xlink:href="#HelveticaWorld-Regular-114"/><use x="2368.516" xlink:href="#HelveticaWorld-Regular-109"/><use x="2451.523" xlink:href="#HelveticaWorld-Regular-97"/><use x="2506.455" xlink:href="#HelveticaWorld-Regular-108"/><use x="2528.477" xlink:href="#HelveticaWorld-Regular-41"/></g></g></g></g><defs><clipPath id="p7dc5f8d2bf"><path d="M43.826 25.579h357.12v266.112H43.826z"/></clipPath></defs></svg>