<svg height="425.032" viewBox="0 0 421.792 318.774" width="562.39" xmlns="http://www.w3.org/2000/svg" xmlns:xlink="http://www.w3.org/1999/xlink"><defs><style>*{stroke-linecap:butt;stroke-linejoin:round}</style></defs><g id="figure_1"><path d="M0 318.774h421.792V0H0z" fill="none" id="patch_1"/><g id="axes_1"><path d="M30.188 291.626h357.12V25.514H30.188z" fill="none" id="patch_2"/><g id="matplotlib.axis_1"><g id="xtick_1"><path clip-path="url(#p905e4ed16e)" d="M46.421 291.626V25.514" fill="none" stroke="#969696" stroke-linecap="square" stroke-width=".3" id="line2d_1"/><g id="line2d_2"><defs><path d="M0 0v3.5" id="m89de05c98b" stroke="#969696" stroke-width=".4"/></defs><use x="46.421" xlink:href="#m89de05c98b" y="291.626" fill="#969696" stroke="#969696" stroke-width=".4"/></g><g id="text_1"><defs><path d="M54.594 21.578H4v7.328h50.594z" id="HelveticaWorld-Regular-8722"/><path d="M4.39 45.125q0 12.39 6.391 18.781 6.406 6.407 17.938 6.407 9.656 0 15.812-5.86 6.157-5.86 6.157-15.14 0-7.22-3.547-12.188-3.532-4.953-10.422-8.703l-12.11-6.64Q13.922 15.921 12.5 8.296h38.188V0H2.593q.39 9.906 4.297 16.5 3.906 6.594 12.203 11.375l12.593 7.328q5.032 2.89 7.329 5.984 2.297 3.094 2.297 8.516 0 5.375-3.766 9.031-3.75 3.672-10.156 3.672-7.078 0-10.594-4.672-3.516-4.656-3.61-12.609z" id="HelveticaWorld-Regular-50"/></defs><g transform="matrix(.14 0 0 -.14 38.427 308.675)" fill="#969696"><use xlink:href="#HelveticaWorld-Regular-8722"/><use x="58.594" xlink:href="#HelveticaWorld-Regular-50"/></g></g></g><g id="xtick_2"><path clip-path="url(#p905e4ed16e)" d="M127.585 291.626V25.514" fill="none" stroke="#969696" stroke-linecap="square" stroke-width=".3" id="line2d_3"/><use x="127.585" xlink:href="#m89de05c98b" y="291.626" fill="#969696" stroke="#969696" stroke-width=".4" id="line2d_4"/><g id="text_2"><defs><path d="M35.89 0h-9.374v49.906H10.109v6.985q8.594.28 12.782 2.75Q27.094 62.109 29 70.313h6.89z" id="HelveticaWorld-Regular-49"/></defs><g transform="matrix(.14 0 0 -.14 119.59 308.675)" fill="#969696"><use xlink:href="#HelveticaWorld-Regular-8722"/><use x="58.594" xlink:href="#HelveticaWorld-Regular-49"/></g></g></g><g id="xtick_3"><path clip-path="url(#p905e4ed16e)" d="M208.748 291.626V25.514" fill="none" stroke="#969696" stroke-linecap="square" stroke-width=".3" id="line2d_5"/><use x="208.748" xlink:href="#m89de05c98b" y="291.626" fill="#969696" stroke="#969696" stroke-width=".4" id="line2d_6"/><g id="text_3"><defs><path d="M42.484 34.188q0 14.109-3.734 21.156-3.734 7.062-10.969 7.062-7.078 0-10.89-7.062-3.797-7.047-3.797-21.157 0-13.671 3.75-20.937Q20.609 6 27.78 6q7.235 0 10.969 7 3.734 7.016 3.734 21.188zm9.422 0q0-17.297-6.25-26.704-6.25-9.39-17.875-9.39-12.062 0-18.062 9.734-6 9.75-6 26.36 0 17.03 6.14 26.578 6.157 9.547 17.922 9.547 11.625 0 17.875-9.5t6.25-26.626z" id="HelveticaWorld-Regular-48"/></defs><use xlink:href="#HelveticaWorld-Regular-48" transform="matrix(.14 0 0 -.14 204.856 308.675)" fill="#969696"/></g></g><g id="xtick_4"><path clip-path="url(#p905e4ed16e)" d="M289.912 291.626V25.514" fill="none" stroke="#969696" stroke-linecap="square" stroke-width=".3" id="line2d_7"/><use x="289.912" xlink:href="#m89de05c98b" y="291.626" fill="#969696" stroke="#969696" stroke-width=".4" id="line2d_8"/><use xlink:href="#HelveticaWorld-Regular-49" transform="matrix(.14 0 0 -.14 286.02 308.675)" fill="#969696" id="text_4"/></g><g id="xtick_5"><path clip-path="url(#p905e4ed16e)" d="M371.076 291.626V25.514" fill="none" stroke="#969696" stroke-linecap="square" stroke-width=".3" id="line2d_9"/><use x="371.076" xlink:href="#m89de05c98b" y="291.626" fill="#969696" stroke="#969696" stroke-width=".4" id="line2d_10"/><use xlink:href="#HelveticaWorld-Regular-50" transform="matrix(.14 0 0 -.14 367.183 308.675)" fill="#969696" id="text_5"/></g></g><g id="matplotlib.axis_2"><g id="ytick_1"><path clip-path="url(#p905e4ed16e)" d="M30.188 280.798h357.12" fill="none" stroke="#969696" stroke-linecap="square" stroke-width=".3" id="line2d_11"/><g id="line2d_12"><defs><path d="M0 0h-3.5" id="m997b04c12b" stroke="#969696" stroke-width=".3"/></defs><use x="30.188" xlink:href="#m997b04c12b" y="280.798" fill="#969696" stroke="#969696" stroke-width=".3"/></g><g transform="matrix(.14 0 0 -.14 7.2 285.823)" fill="#969696" id="text_6"><use xlink:href="#HelveticaWorld-Regular-8722"/><use x="58.594" xlink:href="#HelveticaWorld-Regular-50"/></g></g><g id="ytick_2"><path clip-path="url(#p905e4ed16e)" d="M30.188 226.658h357.12" fill="none" stroke="#969696" stroke-linecap="square" stroke-width=".3" id="line2d_13"/><use x="30.188" xlink:href="#m997b04c12b" y="226.658" fill="#969696" stroke="#969696" stroke-width=".3" id="line2d_14"/><g transform="matrix(.14 0 0 -.14 7.2 231.683)" fill="#969696" id="text_7"><use xlink:href="#HelveticaWorld-Regular-8722"/><use x="58.594" xlink:href="#HelveticaWorld-Regular-49"/></g></g><g id="ytick_3"><path clip-path="url(#p905e4ed16e)" d="M30.188 172.519h357.12" fill="none" stroke="#969696" stroke-linecap="square" stroke-width=".3" id="line2d_15"/><use x="30.188" xlink:href="#m997b04c12b" y="172.519" fill="#969696" stroke="#969696" stroke-width=".3" id="line2d_16"/><use xlink:href="#HelveticaWorld-Regular-48" transform="matrix(.14 0 0 -.14 15.403 177.543)" fill="#969696" id="text_8"/></g><g id="ytick_4"><path clip-path="url(#p905e4ed16e)" d="M30.188 118.379h357.12" fill="none" stroke="#969696" stroke-linecap="square" stroke-width=".3" id="line2d_17"/><use x="30.188" xlink:href="#m997b04c12b" y="118.379" fill="#969696" stroke="#969696" stroke-width=".3" id="line2d_18"/><use xlink:href="#HelveticaWorld-Regular-49" transform="matrix(.14 0 0 -.14 15.403 123.404)" fill="#969696" id="text_9"/></g><g id="ytick_5"><path clip-path="url(#p905e4ed16e)" d="M30.188 64.24h357.12" fill="none" stroke="#969696" stroke-linecap="square" stroke-width=".3" id="line2d_19"/><use x="30.188" xlink:href="#m997b04c12b" y="64.239" fill="#969696" stroke="#969696" stroke-width=".3" id="line2d_20"/><use xlink:href="#HelveticaWorld-Regular-50" transform="matrix(.14 0 0 -.14 15.403 69.264)" fill="#969696" id="text_10"/></g></g><path clip-path="url(#p905e4ed16e)" d="M30.188 118.379H387.308" fill="none" stroke="#1f77b4" stroke-linecap="square" stroke-width="1.5" id="line2d_21"/><path clip-path="url(#p905e4ed16e)" d="M30.188 291.626l3.608-2.406 3.607-2.407 3.607-2.406 3.608-2.406 3.607-2.406 3.607-2.406 3.607-2.407 3.608-2.406 3.607-2.406 3.607-2.406 3.607-2.406 3.608-2.407 3.607-2.406 3.607-2.406 3.608-2.406 3.607-2.406 3.607-2.407 3.607-2.406 3.608-2.406 3.607-2.406 3.607-2.406 3.607-2.407 3.608-2.406 3.607-2.406 3.607-2.406 3.608-2.406 3.607-2.407 3.607-2.406 3.607-2.406 3.608-2.406 3.607-2.407 3.607-2.406 3.607-2.406 3.608-2.406 3.607-2.406 3.607-2.407 3.608-2.406 3.607-2.406 3.607-2.406 3.607-2.406 3.608-2.407 3.607-2.406 3.607-2.406 3.607-2.406 3.608-2.406 3.607-2.407 3.607-2.406 3.608-2.406 3.607-2.406 3.607-2.406 3.607-2.407 3.608-2.406 3.607-2.406 3.607-2.406 3.607-2.406 3.608-2.407 3.607-2.406 3.607-2.406 3.608-2.406 3.607-2.406 3.607-2.407 3.607-2.406 3.608-2.406 3.607-2.406 3.607-2.407 3.607-2.406 3.608-2.406 3.607-2.406 3.607-2.406 3.608-2.407 3.607-2.406 3.607-2.406 3.607-2.406 3.608-2.406 3.607-2.407 3.607-2.406 3.607-2.406 3.608-2.406 3.607-2.406 3.607-2.407 3.608-2.406 3.607-2.406 3.607-2.406 3.607-2.406 3.608-2.407 3.607-2.406 3.607-2.406 3.607-2.406 3.608-2.406 3.607-2.407 3.607-2.406 3.608-2.406 3.607-2.406 3.607-2.406 3.607-2.407 3.608-2.406 3.607-2.406 3.607-2.406 3.607-2.407" fill="none" stroke="#ff7f0e" stroke-linecap="square" stroke-width="1.5" id="line2d_22"/><path clip-path="url(#p905e4ed16e)" d="M30.188 25.514l3.608 7.41 3.607 7.26 3.607 7.108 3.608 6.957 3.607 6.806 3.607 6.655 3.607 6.503 3.608 6.352 3.607 6.2 3.607 6.05 3.607 5.899 3.608 5.747 3.607 5.596 3.607 5.444 3.608 5.294 3.607 5.142 3.607 4.99 3.607 4.84 3.608 4.689 3.607 4.537 3.607 4.386 3.607 4.235 3.608 4.083 3.607 3.932 3.607 3.781 3.608 3.63 3.607 3.479 3.607 3.327 3.607 3.176 3.608 3.025 3.607 2.873 3.607 2.723 3.607 2.57 3.608 2.42 3.607 2.27 3.607 2.116 3.608 1.967 3.607 1.814 3.607 1.664 3.607 1.513 3.608 1.36 3.607 1.21 3.607 1.06 3.607.907 3.608.756 3.607.605 3.607.454 3.608.302 3.607.151h3.607l3.607-.151 3.608-.302 3.607-.454 3.607-.605 3.607-.756 3.608-.908 3.607-1.058 3.607-1.21 3.608-1.361 3.607-1.513 3.607-1.664 3.607-1.814 3.608-1.967 3.607-2.117 3.607-2.268 3.607-2.42 3.608-2.571 3.607-2.723 3.607-2.873 3.608-3.025 3.607-3.176 3.607-3.327 3.607-3.479 3.608-3.63 3.607-3.78 3.607-3.933 3.607-4.083 3.608-4.235 3.607-4.386 3.607-4.537 3.608-4.689 3.607-4.84 3.607-4.99 3.607-5.142 3.608-5.294 3.607-5.444 3.607-5.596 3.607-5.747 3.608-5.899 3.607-6.05 3.607-6.2 3.608-6.352 3.607-6.503 3.607-6.655 3.607-6.806 3.608-6.957 3.607-7.108 3.607-7.26 3.607-7.41" fill="none" stroke="#2ca02c" stroke-linecap="square" stroke-width="1.5" id="line2d_23"/><path clip-path="url(#p905e4ed16e)" d="M30.188 261.99l3.608-11.031 3.607-10.466 3.607-9.912 3.608-9.371 3.607-8.842 3.607-8.323 3.607-7.817 3.608-7.322 3.607-6.84 3.607-6.367 3.607-5.907 3.608-5.46 3.607-5.022 3.607-4.598 3.608-4.184 3.607-3.783 3.607-3.393 3.607-3.014 3.608-2.648 3.607-2.293 3.607-1.949 3.607-1.617 3.608-1.297 3.607-.989 3.607-.692 3.608-.406 3.607-.133 3.607.129 3.607.38 3.608.617 3.607.845 3.607 1.06 3.607 1.265 3.608 1.456 3.607 1.637 3.607 1.805 3.608 1.963 3.607 2.108 3.607 2.243 3.607 2.364 3.608 2.475 3.607 2.574 3.607 2.661 3.607 2.737 3.608 2.801 3.607 2.853 3.607 2.895 3.608 2.923 3.607 2.94 3.607 2.947 3.607 2.94 3.608 2.924 3.607 2.894 3.607 2.853 3.607 2.801 3.608 2.737 3.607 2.661 3.607 2.574 3.608 2.475 3.607 2.365 3.607 2.242 3.607 2.108 3.608 1.963 3.607 1.805 3.607 1.637 3.607 1.456 3.608 1.265 3.607 1.06 3.607.845 3.608.618 3.607.38 3.607.129 3.607-.133 3.608-.407 3.607-.692 3.607-.988 3.607-1.297 3.608-1.618 3.607-1.949 3.607-2.293 3.608-2.647 3.607-3.015 3.607-3.392 3.607-3.783 3.608-4.185 3.607-4.598 3.607-5.022 3.607-5.46 3.608-5.907 3.607-6.368 3.607-6.839 3.608-7.322 3.607-7.817 3.607-8.323 3.607-8.841 3.608-9.372 3.607-9.912 3.607-10.466 3.607-11.03" fill="none" stroke="#d62728" stroke-linecap="square" stroke-width="1.5" id="line2d_24"/><path clip-path="url(#p905e4ed16e)" d="M30.188 201.411l3.608 7.458 3.607 6.504 3.607 5.597 3.608 4.74 3.607 3.932 3.607 3.169 3.607 2.45 3.608 1.78 3.607 1.148 3.607.563 3.607.016 3.608-.488 3.607-.954 3.607-1.381 3.608-1.772 3.607-2.126 3.607-2.445 3.607-2.73 3.608-2.98 3.607-3.2 3.607-3.39 3.607-3.546 3.608-3.677 3.607-3.778 3.607-3.853 3.608-3.902 3.607-3.925 3.607-3.925 3.607-3.903 3.608-3.859 3.607-3.793 3.607-3.708 3.607-3.605 3.608-3.485 3.607-3.346 3.607-3.194 3.608-3.025 3.607-2.845 3.607-2.652 3.607-2.446 3.608-2.232 3.607-2.007 3.607-1.774 3.607-1.534 3.608-1.288 3.607-1.037 3.607-.781 3.608-.522 3.607-.262h3.607l3.607.262 3.608.522 3.607.781L224.98 142l3.607 1.288 3.608 1.534 3.607 1.774 3.607 2.007 3.608 2.232 3.607 2.446 3.607 2.652 3.607 2.845 3.608 3.025 3.607 3.194 3.607 3.346 3.607 3.485 3.608 3.605 3.607 3.708 3.607 3.793 3.608 3.859 3.607 3.903 3.607 3.925 3.607 3.925 3.608 3.902 3.607 3.853 3.607 3.778 3.607 3.677 3.608 3.547 3.607 3.389 3.607 3.2 3.608 2.98 3.607 2.73 3.607 2.445 3.607 2.126 3.608 1.772 3.607 1.381 3.607.954 3.607.488 3.608-.016 3.607-.563 3.607-1.149 3.608-1.778 3.607-2.451 3.607-3.169 3.607-3.931 3.608-4.74 3.607-5.598 3.607-6.504 3.607-7.458" fill="none" stroke="#9467bd" stroke-linecap="square" stroke-width="1.5" id="line2d_25"/><path clip-path="url(#p905e4ed16e)" d="M30.188 64.068l3.608 3.25 3.607 3.943 3.607 4.544 3.608 5.058 3.607 5.488 3.607 5.84 3.607 6.12 3.608 6.33 3.607 6.474 3.607 6.559 3.607 6.587 3.608 6.564 3.607 6.492 3.607 6.375 3.608 6.218 3.607 6.025 3.607 5.797 3.607 5.54 3.608 5.255 3.607 4.948 3.607 4.62 3.607 4.276 3.608 3.917 3.607 3.545L120.37 197l3.608 2.78 3.607 2.392 3.607 2.002 3.607 1.612 3.608 1.226 3.607.846 3.607.473 3.607.11 3.608-.243 3.607-.582 3.607-.908 3.608-1.217 3.607-1.508 3.607-1.782 3.607-2.035 3.608-2.268 3.607-2.478 3.607-2.667 3.607-2.83 3.608-2.971 3.607-3.087 3.607-3.177 3.608-3.242 3.607-3.28 3.607-3.294 3.607-3.28 3.608-3.243 3.607-3.177 3.607-3.086 3.607-2.971 3.608-2.831 3.607-2.666 3.607-2.479 3.608-2.268 3.607-2.035 3.607-1.781 3.607-1.509 3.608-1.217 3.607-.907 3.607-.583 3.607-.242 3.608.11 3.607.472 3.607.846 3.608 1.227 3.607 1.612 3.607 2.001 3.607 2.392 3.608 2.78 3.607 3.167 3.607 3.546 3.607 3.916 3.608 4.276 3.607 4.62 3.607 4.949 3.608 5.255 3.607 5.54 3.607 5.797 3.607 6.024 3.608 6.218 3.607 6.376 3.607 6.492 3.607 6.563 3.608 6.588 3.607 6.559 3.607 6.474 3.608 6.33 3.607 6.119 3.607 5.84 3.607 5.488 3.608 5.058 3.607 4.544 3.607 3.944 3.607 3.25" fill="none" stroke="#8c564b" stroke-linecap="square" stroke-width="1.5" id="line2d_26"/><g id="text_11"><defs><path d="M49.219 0h-8.844v32.172q0 7.422-2.594 10.578-2.578 3.156-8.578 3.156-5.906 0-9.875-4.5-3.953-4.484-3.953-12.89V0H6.594v52.297h8.297v-7.375h.203q6.203 8.89 15.812 8.89 8.89 0 13.594-4.718 4.719-4.703 4.719-13.5z" id="HelveticaWorld-Regular-110"/><path d="M54.594 31.578H4v7.328h50.594zm0-20H4v7.328h50.594z" id="HelveticaWorld-Regular-61"/></defs><g transform="matrix(.14 0 0 -.14 390.88 121.955)" fill="#1f77b4"><use xlink:href="#HelveticaWorld-Regular-110"/><use x="55.176" xlink:href="#HelveticaWorld-Regular-61"/><use x="113.77" xlink:href="#HelveticaWorld-Regular-48"/></g></g><g transform="matrix(.14 0 0 -.14 390.88 56.987)" fill="#ff7f0e" id="text_12"><use xlink:href="#HelveticaWorld-Regular-110"/><use x="55.176" xlink:href="#HelveticaWorld-Regular-61"/><use x="113.77" xlink:href="#HelveticaWorld-Regular-49"/></g><g transform="matrix(.14 0 0 -.14 390.88 29.09)" fill="#2ca02c" id="text_13"><use xlink:href="#HelveticaWorld-Regular-110"/><use x="55.176" xlink:href="#HelveticaWorld-Regular-61"/><use x="113.77" xlink:href="#HelveticaWorld-Regular-50"/></g><g id="text_14"><defs><path d="M22.406 39.984q2.203-.187 4.594-.187 6.203 0 9.781 2.86 3.594 2.859 3.594 8.656 0 4.687-3.344 7.89-3.343 3.203-9.64 3.203-6.985 0-10.235-4.11-3.234-4.093-3.437-10.983h-8.64q0 10.984 5.765 16.984 5.765 6.016 16.937 6.016 9.922 0 15.828-5.11 5.907-5.094 5.907-13.39 0-10.704-9.032-14.5v-.204q11.72-4 11.72-16.406 0-9.906-6.595-16.265-6.593-6.344-18.703-6.344-9.906 0-16.312 5.203Q4.204 8.5 3.422 21.484H12.5q.203-8.109 4-11.797Q20.313 6 27.484 6q6.938 0 11.141 3.86 4.203 3.859 4.203 9.718 0 6.406-4.016 9.672-4 3.266-12.39 3.266-2 0-4.016-.094z" id="HelveticaWorld-Regular-51"/></defs><g transform="matrix(.14 0 0 -.14 390.88 86.624)" fill="#d62728"><use xlink:href="#HelveticaWorld-Regular-110"/><use x="55.176" xlink:href="#HelveticaWorld-Regular-61"/><use x="113.77" xlink:href="#HelveticaWorld-Regular-51"/></g></g><g id="text_15"><defs><path d="M10.594 24.703h22.61v31.89h-.188zM42 17.093V0h-8.797v17.094H2.484v8.593L34.72 70.314H42v-45.61h10.297v-7.61z" id="HelveticaWorld-Regular-52"/></defs><g transform="matrix(.14 0 0 -.14 390.88 204.986)" fill="#9467bd"><use xlink:href="#HelveticaWorld-Regular-110"/><use x="55.176" xlink:href="#HelveticaWorld-Regular-61"/><use x="113.77" xlink:href="#HelveticaWorld-Regular-52"/></g></g><g id="text_16"><defs><path d="M14.703 40.922q5.813 4.39 13.625 4.39 9.469 0 16.281-6.296 6.813-6.297 6.813-16.22 0-10.78-6.578-17.796-6.563-7-18.422-7-10.313 0-16.266 5.047Q4.203 8.109 3.22 17.39h9.094q.671-5.672 4.437-8.672 3.766-3 10.453-3 6.485 0 10.64 4.484Q42 14.703 42 21.688q0 7.125-4.36 11.421-4.343 4.297-11.218 4.297-7.813 0-13.047-6.687l-7.563.39 5.266 37.594h36.438v-8.5H17.672z" id="HelveticaWorld-Regular-53"/></defs><g transform="matrix(.14 0 0 -.14 390.88 284.545)" fill="#8c564b"><use xlink:href="#HelveticaWorld-Regular-110"/><use x="55.176" xlink:href="#HelveticaWorld-Regular-61"/><use x="113.77" xlink:href="#HelveticaWorld-Regular-53"/></g></g><g id="text_17"><defs><path d="M64.89 0h-9.718v33.5h-37.5V0H8.109v71.781h9.563V42.094h37.5V71.78h9.719z" id="HelveticaWorld-Regular-72"/><path d="M42.484 30.328q-.687 8.485-4.5 12.031-3.797 3.547-10.109 3.547-6.39 0-10.328-4.5-3.922-4.484-4.172-11.078zm8.391-13.922q-1.453-8.11-7.953-13.422-5.719-4.5-15.047-4.593-10.984.093-17.438 7.203Q4 12.704 4 24.704q0 13.78 6.64 21.437 6.641 7.672 18.47 7.672 10.593 0 16.546-7.922 5.953-7.907 5.953-22.594H13.375q0-8.203 3.813-12.703Q21 6.109 28.608 6.109q5.375 0 9.235 3.235 3.86 3.25 4.25 7.062z" id="HelveticaWorld-Regular-101"/><path d="M15.375 0H6.594v52.297h8.297v-8.688h.203q5.703 10.203 14.687 10.203 1.422 0 2.297-.296V44.39h-3.266q-5.906 0-9.671-4.016-3.766-4-3.766-9.953z" id="HelveticaWorld-Regular-114"/><path d="M6.594 52.297h8.297v-7.375h.203q5.906 8.89 15.812 8.89 9.813 0 13.922-8.5 3.75 4.594 7.266 6.547 3.515 1.953 8.703 1.953 6.781 0 11.484-4.453Q77 44.922 77 36.187V0h-8.781v33.797q0 6.094-2.297 9.094-2.297 3.015-7.422 3.015-5.172 0-8.75-4.203-3.563-4.203-3.563-9.812V0h-8.78v36.188q0 4.53-2.11 7.124-2.094 2.594-6.094 2.594-6.297 0-10.062-4.687-3.766-4.688-3.766-12.703V0H6.594z" id="HelveticaWorld-Regular-109"/><path d="M6.594 61.813v9.968h8.781v-9.969zM15.375 0H6.594v52.297h8.781z" id="HelveticaWorld-Regular-105"/><path d="M17.188 45.016V10.984q0-2 1.093-3.046 1.11-1.047 3.938-1.047h3.375V0Q20.797-.688 19-.688q-5.516 0-8.063 2.641-2.53 2.64-2.53 8.547v34.516H1.311v7.28h7.094v14.595h8.781V52.297h8.407v-7.281z" id="HelveticaWorld-Regular-116"/><path d="M14.984 23.688q0-8.407 4.094-13 4.11-4.579 10.219-4.579 6.687 0 10.39 5.438 3.72 5.453 3.72 14.765 0 10.22-3.563 14.907-3.563 4.687-10.735 4.687-6.984 0-10.562-5.5-3.563-5.5-3.563-16.718zm-8.39 28.609h8.297v-7.375h.203q5.61 8.89 15.625 8.89 10.11 0 15.937-7.359 5.828-7.344 5.828-18.766 0-12.796-5.953-21Q40.578-1.515 29.5-1.515q-9.094 0-13.922 7.032h-.203v-26.22H6.594z" id="HelveticaWorld-Regular-112"/><path d="M12.703 26.219q0-8.735 3.953-14.375 3.953-5.64 11.219-5.64 7.531 0 11.438 5.905 3.906 5.907 3.906 14.11 0 8.297-3.907 14.078-3.906 5.797-11.437 5.797-6.969 0-11.078-5.453-4.094-5.438-4.094-14.422zm-8.984 0q0 11.672 6.484 19.625 6.5 7.968 17.672 7.968 11.438 0 17.875-8.062 6.453-8.047 6.453-19.531 0-11.516-6.406-19.625-6.39-8.11-17.922-8.11-11.078 0-17.625 7.86-6.531 7.86-6.531 19.875z" id="HelveticaWorld-Regular-111"/><path d="M15.375 0H6.594v71.781h8.781z" id="HelveticaWorld-Regular-108"/><path d="M39.016 52.297h9.562L29.891.984q-.5-1.375-.985-2.593-4.25-11.329-7.328-15.547-3.078-4.235-9.953-4.235-3.61 0-5.906.782v8.015q2.484-.89 5.468-.89 3.22 0 4.704 2.03 1.5 2.032 4.421 9.938L.875 52.297h9.922L24.812 9.719H25z" id="HelveticaWorld-Regular-121"/><path d="M38.375 26.703q-.969-1.015-3.828-1.656-2.86-.625-10.672-1.656-5.766-.688-8.469-2.844-2.703-2.14-2.703-5.656 0-4.297 2.281-6.688 2.297-2.39 7.329-2.39 6.296 0 11.171 3.578 4.891 3.593 4.891 8.718zM6.203 36.375q.297 8.844 5.734 13.14 5.454 4.297 15.844 4.297 8.297 0 13.907-3.765 5.624-3.75 5.624-10.844V9.078Q47.313 6 50.094 6q1.125 0 2.89.39V0Q50.594-.984 48-.984q-4.5 0-6.703 1.921-2.188 1.938-2.281 6.047-7.516-8.5-18.891-8.5-7.422 0-11.922 4.204Q3.72 6.89 3.72 13.624q0 6.89 3.906 11.125Q11.531 29 19 29.89l15.516 1.891q4.203.64 4.203 6.203 0 4.11-3.047 6.297-3.047 2.203-9.25 2.203-5.516 0-8.485-2.437-2.953-2.438-3.53-7.672z" id="HelveticaWorld-Regular-97"/><path d="M36.078 37.406q-.187 4.688-3.344 6.735-3.14 2.047-9.047 2.047-4.296 0-7.359-1.907-3.047-1.89-3.047-5.468 0-2.829 1.797-4.172 1.813-1.344 7.828-2.86l8.688-2.187q7.906-2 11.297-5.11 3.406-3.093 3.406-8.656 0-7.719-5.64-12.531-5.641-4.813-15.063-4.813-11 0-16.64 4.563-5.626 4.578-5.735 13.75h8.5q.203-5.422 3.594-8.063 3.39-2.625 10.171-2.625 5.516 0 8.766 2.188 3.25 2.203 3.25 6.11 0 2.78-2.11 4.437-2.093 1.672-8.296 3.078l-10.203 2.5q-6.203 1.562-9.157 4.656-2.953 3.094-2.953 8.031 0 7.72 5.516 12.203 5.531 4.5 14.406 4.5 9.485 0 14.531-4.624 5.047-4.61 5.344-11.782z" id="HelveticaWorld-Regular-115"/><path d="M29.781 73.297q-8.875-15.875-11.218-25.844-2.344-9.953-2.344-21.969 0-11.859 3.187-22.125Q22.61-6.89 29.891-20.703h-5.86Q15.72-8.593 11.25 2.187 6.781 12.985 6.781 26.125q0 12.36 4.047 23.563 4.063 11.203 12.86 23.609z" id="HelveticaWorld-Regular-40"/><path d="M43.406 26.313q0 10.5-3.718 15.046-3.704 4.547-10.579 4.547-6.984-.11-10.562-5.453Q14.984 35.11 14.984 25q0-10.297 4.297-14.594Q23.578 6.11 29.297 6.11q6.5 0 10.297 5.344 3.812 5.344 3.812 14.86zM6.594 0v71.781h8.781V45.703h.203q5.61 8.11 15.14 8.11 9.766 0 15.766-7.25t6-18.876q0-13.093-6.062-21.156Q40.375-1.516 29.5-1.516q-9.578 0-14.406 8.016h-.203V0z" id="HelveticaWorld-Regular-98"/><path d="M8.688 10.594h10.406V.78q0-7.422-3.078-11.172-3.078-3.765-7.328-4.312v4.594Q14.015-9.422 14.015 0H8.687z" id="HelveticaWorld-Regular-44"/><path d="M39.594 34.719q-1.89 11.187-12.39 11.187-6.5 0-10.454-5.203-3.953-5.203-3.953-14.484 0-10.11 3.656-15.11 3.672-5 10.64-5 4.688 0 8.11 3.438 3.422 3.437 4.39 8.953h8.5q-1.312-9.703-6.859-14.86-5.547-5.156-14.328-5.156-10.297 0-16.89 7.047-6.594 7.063-6.594 19.172 0 13.281 6.594 21.188 6.593 7.922 18.5 7.922 8.687 0 13.843-5.204 5.157-5.203 5.735-13.89z" id="HelveticaWorld-Regular-99"/><path d="M12.984 26.313q0-9.61 3.813-14.907Q20.609 6.11 27.094 6.11q6.312 0 10.312 4.579 4 4.593 4 13 0 11.03-3.5 16.625-3.484 5.593-10.61 5.593-7.171 0-10.75-4.765-3.562-4.766-3.562-14.828zM49.812 2.983q0-12.609-6.062-18.797-6.047-6.203-18.266-6.203-8.78 0-13.984 4.047Q6.297-13.922 5.516-6.39h8.796q.672-3.812 3.532-6.062 2.86-2.25 8.281-2.25 7.375 0 11.125 3.969 3.766 3.953 3.766 12.828v3.719h-.188q-4.937-7.329-13.922-7.329-11.187 0-17.093 8.25-5.907 8.25-5.907 20.953 0 11.625 5.953 18.875 5.97 7.25 15.829 7.25 9.906 0 15.625-8.89h.187v7.375h8.313z" id="HelveticaWorld-Regular-103"/><path d="M3.516-20.703q8.796 15.922 11.14 25.86Q17 15.093 17 27.093q0 11.922-3.156 22.172T3.422 73.296h5.765q8.391-12.109 12.86-22.905 4.469-10.797 4.469-23.875 0-12.407-4.063-23.61-4.047-11.203-12.828-23.61z" id="HelveticaWorld-Regular-41"/></defs><g transform="matrix(.168 0 0 -.168 26.215 19.514)" fill="#969696"><use xlink:href="#HelveticaWorld-Regular-72"/><use x="72.998" xlink:href="#HelveticaWorld-Regular-101"/><use x="128.418" xlink:href="#HelveticaWorld-Regular-114"/><use x="160.986" xlink:href="#HelveticaWorld-Regular-109"/><use x="243.994" xlink:href="#HelveticaWorld-Regular-105"/><use x="266.016" xlink:href="#HelveticaWorld-Regular-116"/><use x="293.701" xlink:href="#HelveticaWorld-Regular-101"/><use x="349.121" xlink:href="#HelveticaWorld-Regular-32"/><use x="373.535" xlink:href="#HelveticaWorld-Regular-112"/><use x="430.029" xlink:href="#HelveticaWorld-Regular-111"/><use x="485.938" xlink:href="#HelveticaWorld-Regular-108"/><use x="507.959" xlink:href="#HelveticaWorld-Regular-121"/><use x="557.568" xlink:href="#HelveticaWorld-Regular-110"/><use x="612.744" xlink:href="#HelveticaWorld-Regular-111"/><use x="668.652" xlink:href="#HelveticaWorld-Regular-109"/><use x="751.66" xlink:href="#HelveticaWorld-Regular-105"/><use x="773.682" xlink:href="#HelveticaWorld-Regular-97"/><use x="828.613" xlink:href="#HelveticaWorld-Regular-108"/><use x="850.635" xlink:href="#HelveticaWorld-Regular-115"/><use x="900.635" xlink:href="#HelveticaWorld-Regular-32"/><use x="925.049" xlink:href="#HelveticaWorld-Regular-40"/><use x="958.35" xlink:href="#HelveticaWorld-Regular-112"/><use x="1014.844" xlink:href="#HelveticaWorld-Regular-114"/><use x="1046.412" xlink:href="#HelveticaWorld-Regular-111"/><use x="1102.32" xlink:href="#HelveticaWorld-Regular-98"/><use x="1158.814" xlink:href="#HelveticaWorld-Regular-97"/><use x="1213.746" xlink:href="#HelveticaWorld-Regular-98"/><use x="1270.24" xlink:href="#HelveticaWorld-Regular-105"/><use x="1292.262" xlink:href="#HelveticaWorld-Regular-108"/><use x="1314.283" xlink:href="#HelveticaWorld-Regular-105"/><use x="1336.305" xlink:href="#HelveticaWorld-Regular-115"/><use x="1386.305" xlink:href="#HelveticaWorld-Regular-116"/><use x="1413.99" xlink:href="#HelveticaWorld-Regular-44"/><use x="1441.773" xlink:href="#HelveticaWorld-Regular-32"/><use x="1466.188" xlink:href="#HelveticaWorld-Regular-115"/><use x="1516.188" xlink:href="#HelveticaWorld-Regular-99"/><use x="1567.457" xlink:href="#HelveticaWorld-Regular-97"/><use x="1622.389" xlink:href="#HelveticaWorld-Regular-108"/><use x="1644.41" xlink:href="#HelveticaWorld-Regular-105"/><use x="1666.432" xlink:href="#HelveticaWorld-Regular-110"/><use x="1721.607" xlink:href="#HelveticaWorld-Regular-103"/><use x="1777.516" xlink:href="#HelveticaWorld-Regular-61"/><use x="1836.109" xlink:href="#HelveticaWorld-Regular-110"/><use x="1891.285" xlink:href="#HelveticaWorld-Regular-111"/><use x="1947.193" xlink:href="#HelveticaWorld-Regular-114"/><use x="1979.762" xlink:href="#HelveticaWorld-Regular-109"/><use x="2062.77" xlink:href="#HelveticaWorld-Regular-97"/><use x="2117.701" xlink:href="#HelveticaWorld-Regular-108"/><use x="2139.723" xlink:href="#HelveticaWorld-Regular-41"/></g></g></g></g><defs><clipPath id="p905e4ed16e"><path d="M30.188 25.514h357.12v266.112H30.188z"/></clipPath></defs></svg>