<svg height="425.032" viewBox="0 0 421.792 318.774" width="562.39" xmlns="http://www.w3.org/2000/svg" xmlns:xlink="http://www.w3.org/1999/xlink"><defs><style>*{stroke-linecap:butt;stroke-linejoin:round}</style></defs><g id="figure_1"><path d="M0 318.774h421.792V0H0z" fill="none" id="patch_1"/><g id="axes_1"><path d="M30.188 291.626h357.12V25.514H30.188z" fill="none" id="patch_2"/><g id="matplotlib.axis_1"><g id="xtick_1"><path clip-path="url(#pee2907ade4)" d="M30.188 291.626V25.514" fill="none" stroke="#969696" stroke-linecap="square" stroke-width=".3" id="line2d_1"/><g id="line2d_2"><defs><path d="M0 0v3.5" id="m5ad27a1bda" stroke="#969696" stroke-width=".4"/></defs><use x="30.188" xlink:href="#m5ad27a1bda" y="291.626" fill="#969696" stroke="#969696" stroke-width=".4"/></g><g id="text_1"><defs><path d="M54.594 21.578H4v7.328h50.594z" id="HelveticaWorld-Regular-8722"/><path d="M35.89 0h-9.374v49.906H10.109v6.985q8.594.28 12.782 2.75Q27.094 62.109 29 70.313h6.89z" id="HelveticaWorld-Regular-49"/><path d="M19.094 0H8.687v10.594h10.407z" id="HelveticaWorld-Regular-46"/><path d="M42.484 34.188q0 14.109-3.734 21.156-3.734 7.062-10.969 7.062-7.078 0-10.89-7.062-3.797-7.047-3.797-21.157 0-13.671 3.75-20.937Q20.609 6 27.78 6q7.235 0 10.969 7 3.734 7.016 3.734 21.188zm9.422 0q0-17.297-6.25-26.704-6.25-9.39-17.875-9.39-12.062 0-18.062 9.734-6 9.75-6 26.36 0 17.03 6.14 26.578 6.157 9.547 17.922 9.547 11.625 0 17.875-9.5t6.25-26.626z" id="HelveticaWorld-Regular-48"/></defs><g transform="matrix(.14 0 0 -.14 12.464 308.675)" fill="#969696"><use xlink:href="#HelveticaWorld-Regular-8722"/><use x="58.594" xlink:href="#HelveticaWorld-Regular-49"/><use x="114.209" xlink:href="#HelveticaWorld-Regular-46"/><use x="141.992" xlink:href="#HelveticaWorld-Regular-48"/><use x="197.607" xlink:href="#HelveticaWorld-Regular-48"/></g></g></g><g id="xtick_2"><path clip-path="url(#pee2907ade4)" d="M74.828 291.626V25.514" fill="none" stroke="#969696" stroke-linecap="square" stroke-width=".3" id="line2d_3"/><use x="74.828" xlink:href="#m5ad27a1bda" y="291.626" fill="#969696" stroke="#969696" stroke-width=".4" id="line2d_4"/><g id="text_2"><defs><path d="M3.719 68.797h48.578v-7.719Q42.28 50.875 33.984 33.484 25.687 16.11 23.391 0h-9.672q1.469 13.281 9.719 30.531 8.25 17.266 18.953 29.672H3.719z" id="HelveticaWorld-Regular-55"/><path d="M14.703 40.922q5.813 4.39 13.625 4.39 9.469 0 16.281-6.296 6.813-6.297 6.813-16.22 0-10.78-6.578-17.796-6.563-7-18.422-7-10.313 0-16.266 5.047Q4.203 8.109 3.22 17.39h9.094q.671-5.672 4.437-8.672 3.766-3 10.453-3 6.485 0 10.64 4.484Q42 14.703 42 21.688q0 7.125-4.36 11.421-4.343 4.297-11.218 4.297-7.813 0-13.047-6.687l-7.563.39 5.266 37.594h36.438v-8.5H17.672z" id="HelveticaWorld-Regular-53"/></defs><g transform="matrix(.14 0 0 -.14 57.104 308.675)" fill="#969696"><use xlink:href="#HelveticaWorld-Regular-8722"/><use x="58.594" xlink:href="#HelveticaWorld-Regular-48"/><use x="114.209" xlink:href="#HelveticaWorld-Regular-46"/><use x="141.992" xlink:href="#HelveticaWorld-Regular-55"/><use x="197.607" xlink:href="#HelveticaWorld-Regular-53"/></g></g></g><g id="xtick_3"><path clip-path="url(#pee2907ade4)" d="M119.468 291.626V25.514" fill="none" stroke="#969696" stroke-linecap="square" stroke-width=".3" id="line2d_5"/><use x="119.468" xlink:href="#m5ad27a1bda" y="291.626" fill="#969696" stroke="#969696" stroke-width=".4" id="line2d_6"/><g transform="matrix(.14 0 0 -.14 101.744 308.675)" fill="#969696" id="text_3"><use xlink:href="#HelveticaWorld-Regular-8722"/><use x="58.594" xlink:href="#HelveticaWorld-Regular-48"/><use x="114.209" xlink:href="#HelveticaWorld-Regular-46"/><use x="141.992" xlink:href="#HelveticaWorld-Regular-53"/><use x="197.607" xlink:href="#HelveticaWorld-Regular-48"/></g></g><g id="xtick_4"><path clip-path="url(#pee2907ade4)" d="M164.108 291.626V25.514" fill="none" stroke="#969696" stroke-linecap="square" stroke-width=".3" id="line2d_7"/><use x="164.108" xlink:href="#m5ad27a1bda" y="291.626" fill="#969696" stroke="#969696" stroke-width=".4" id="line2d_8"/><g id="text_4"><defs><path d="M4.39 45.125q0 12.39 6.391 18.781 6.406 6.407 17.938 6.407 9.656 0 15.812-5.86 6.157-5.86 6.157-15.14 0-7.22-3.547-12.188-3.532-4.953-10.422-8.703l-12.11-6.64Q13.922 15.921 12.5 8.296h38.188V0H2.593q.39 9.906 4.297 16.5 3.906 6.594 12.203 11.375l12.593 7.328q5.032 2.89 7.329 5.984 2.297 3.094 2.297 8.516 0 5.375-3.766 9.031-3.75 3.672-10.156 3.672-7.078 0-10.594-4.672-3.516-4.656-3.61-12.609z" id="HelveticaWorld-Regular-50"/></defs><g transform="matrix(.14 0 0 -.14 146.384 308.675)" fill="#969696"><use xlink:href="#HelveticaWorld-Regular-8722"/><use x="58.594" xlink:href="#HelveticaWorld-Regular-48"/><use x="114.209" xlink:href="#HelveticaWorld-Regular-46"/><use x="141.992" xlink:href="#HelveticaWorld-Regular-50"/><use x="197.607" xlink:href="#HelveticaWorld-Regular-53"/></g></g></g><g id="xtick_5"><path clip-path="url(#pee2907ade4)" d="M208.748 291.626V25.514" fill="none" stroke="#969696" stroke-linecap="square" stroke-width=".3" id="line2d_9"/><use x="208.748" xlink:href="#m5ad27a1bda" y="291.626" fill="#969696" stroke="#969696" stroke-width=".4" id="line2d_10"/><g transform="matrix(.14 0 0 -.14 195.126 308.675)" fill="#969696" id="text_5"><use xlink:href="#HelveticaWorld-Regular-48"/><use x="55.615" xlink:href="#HelveticaWorld-Regular-46"/><use x="83.398" xlink:href="#HelveticaWorld-Regular-48"/><use x="139.014" xlink:href="#HelveticaWorld-Regular-48"/></g></g><g id="xtick_6"><path clip-path="url(#pee2907ade4)" d="M253.388 291.626V25.514" fill="none" stroke="#969696" stroke-linecap="square" stroke-width=".3" id="line2d_11"/><use x="253.388" xlink:href="#m5ad27a1bda" y="291.626" fill="#969696" stroke="#969696" stroke-width=".4" id="line2d_12"/><g transform="matrix(.14 0 0 -.14 239.766 308.675)" fill="#969696" id="text_6"><use xlink:href="#HelveticaWorld-Regular-48"/><use x="55.615" xlink:href="#HelveticaWorld-Regular-46"/><use x="83.398" xlink:href="#HelveticaWorld-Regular-50"/><use x="139.014" xlink:href="#HelveticaWorld-Regular-53"/></g></g><g id="xtick_7"><path clip-path="url(#pee2907ade4)" d="M298.028 291.626V25.514" fill="none" stroke="#969696" stroke-linecap="square" stroke-width=".3" id="line2d_13"/><use x="298.028" xlink:href="#m5ad27a1bda" y="291.626" fill="#969696" stroke="#969696" stroke-width=".4" id="line2d_14"/><g transform="matrix(.14 0 0 -.14 284.406 308.675)" fill="#969696" id="text_7"><use xlink:href="#HelveticaWorld-Regular-48"/><use x="55.615" xlink:href="#HelveticaWorld-Regular-46"/><use x="83.398" xlink:href="#HelveticaWorld-Regular-53"/><use x="139.014" xlink:href="#HelveticaWorld-Regular-48"/></g></g><g id="xtick_8"><path clip-path="url(#pee2907ade4)" d="M342.668 291.626V25.514" fill="none" stroke="#969696" stroke-linecap="square" stroke-width=".3" id="line2d_15"/><use x="342.668" xlink:href="#m5ad27a1bda" y="291.626" fill="#969696" stroke="#969696" stroke-width=".4" id="line2d_16"/><g transform="matrix(.14 0 0 -.14 329.046 308.675)" fill="#969696" id="text_8"><use xlink:href="#HelveticaWorld-Regular-48"/><use x="55.615" xlink:href="#HelveticaWorld-Regular-46"/><use x="83.398" xlink:href="#HelveticaWorld-Regular-55"/><use x="139.014" xlink:href="#HelveticaWorld-Regular-53"/></g></g><g id="xtick_9"><path clip-path="url(#pee2907ade4)" d="M387.308 291.626V25.514" fill="none" stroke="#969696" stroke-linecap="square" stroke-width=".3" id="line2d_17"/><use x="387.308" xlink:href="#m5ad27a1bda" y="291.626" fill="#969696" stroke="#969696" stroke-width=".4" id="line2d_18"/><g transform="matrix(.14 0 0 -.14 373.686 308.675)" fill="#969696" id="text_9"><use xlink:href="#HelveticaWorld-Regular-49"/><use x="55.615" xlink:href="#HelveticaWorld-Regular-46"/><use x="83.398" xlink:href="#HelveticaWorld-Regular-48"/><use x="139.014" xlink:href="#HelveticaWorld-Regular-48"/></g></g></g><g id="matplotlib.axis_2"><g id="ytick_1"><path clip-path="url(#pee2907ade4)" d="M30.188 272.04h357.12" fill="none" stroke="#969696" stroke-linecap="square" stroke-width=".3" id="line2d_19"/><g id="line2d_20"><defs><path d="M0 0h-3.5" id="m3f21026b7b" stroke="#969696" stroke-width=".3"/></defs><use x="30.188" xlink:href="#m3f21026b7b" y="272.04" fill="#969696" stroke="#969696" stroke-width=".3"/></g><g transform="matrix(.14 0 0 -.14 7.2 277.065)" fill="#969696" id="text_10"><use xlink:href="#HelveticaWorld-Regular-8722"/><use x="58.594" xlink:href="#HelveticaWorld-Regular-50"/></g></g><g id="ytick_2"><path clip-path="url(#pee2907ade4)" d="M30.188 215.305h357.12" fill="none" stroke="#969696" stroke-linecap="square" stroke-width=".3" id="line2d_21"/><use x="30.188" xlink:href="#m3f21026b7b" y="215.305" fill="#969696" stroke="#969696" stroke-width=".3" id="line2d_22"/><g transform="matrix(.14 0 0 -.14 7.2 220.33)" fill="#969696" id="text_11"><use xlink:href="#HelveticaWorld-Regular-8722"/><use x="58.594" xlink:href="#HelveticaWorld-Regular-49"/></g></g><g id="ytick_3"><path clip-path="url(#pee2907ade4)" d="M30.188 158.57h357.12" fill="none" stroke="#969696" stroke-linecap="square" stroke-width=".3" id="line2d_23"/><use x="30.188" xlink:href="#m3f21026b7b" y="158.57" fill="#969696" stroke="#969696" stroke-width=".3" id="line2d_24"/><use xlink:href="#HelveticaWorld-Regular-48" transform="matrix(.14 0 0 -.14 15.403 163.595)" fill="#969696" id="text_12"/></g><g id="ytick_4"><path clip-path="url(#pee2907ade4)" d="M30.188 101.835h357.12" fill="none" stroke="#969696" stroke-linecap="square" stroke-width=".3" id="line2d_25"/><use x="30.188" xlink:href="#m3f21026b7b" y="101.835" fill="#969696" stroke="#969696" stroke-width=".3" id="line2d_26"/><use xlink:href="#HelveticaWorld-Regular-49" transform="matrix(.14 0 0 -.14 15.403 106.86)" fill="#969696" id="text_13"/></g><g id="ytick_5"><path clip-path="url(#pee2907ade4)" d="M30.188 45.1h357.12" fill="none" stroke="#969696" stroke-linecap="square" stroke-width=".3" id="line2d_27"/><use x="30.188" xlink:href="#m3f21026b7b" y="45.099" fill="#969696" stroke="#969696" stroke-width=".3" id="line2d_28"/><use xlink:href="#HelveticaWorld-Regular-50" transform="matrix(.14 0 0 -.14 15.403 50.124)" fill="#969696" id="text_14"/></g></g><path clip-path="url(#pee2907ade4)" d="M30.188 118.452H387.308" fill="none" stroke="#1f77b4" stroke-linecap="square" stroke-width="1.5" id="line2d_29"/><path clip-path="url(#pee2907ade4)" d="M30.188 228.056l3.608-1.404 3.607-1.403 3.607-1.404 3.608-1.404 3.607-1.404 3.607-1.403 3.607-1.404 3.608-1.404 3.607-1.404 3.607-1.404 3.607-1.403 3.608-1.404 3.607-1.404 3.607-1.404L84.298 207l3.607-1.404 3.607-1.404 3.607-1.404 3.608-1.403 3.607-1.404 3.607-1.404 3.607-1.404 3.608-1.403 3.607-1.404 3.607-1.404 3.608-1.404 3.607-1.403 3.607-1.404 3.607-1.404 3.608-1.404 3.607-1.404 3.607-1.403 3.607-1.404 3.608-1.404 3.607-1.404 3.607-1.403 3.608-1.404 3.607-1.404 3.607-1.404 3.607-1.403 3.608-1.404 3.607-1.404 3.607-1.404 3.607-1.403 3.608-1.404 3.607-1.404 3.607-1.404 3.608-1.403 3.607-1.404 3.607-1.404 3.607-1.404 3.608-1.404 3.607-1.403 3.607-1.404 3.607-1.404 3.608-1.404 3.607-1.403 3.607-1.404 3.608-1.404 3.607-1.404 3.607-1.403 3.607-1.404 3.608-1.404 3.607-1.404 3.607-1.403 3.607-1.404 3.608-1.404 3.607-1.404 3.607-1.403 3.608-1.404 3.607-1.404 3.607-1.404 3.607-1.404 3.608-1.403 3.607-1.404 3.607-1.404 3.607-1.404 3.608-1.403 3.607-1.404 3.607-1.404 3.608-1.404 3.607-1.403 3.607-1.404 3.607-1.404 3.608-1.404 3.607-1.403 3.607-1.404 3.607-1.404 3.608-1.404 3.607-1.403 3.607-1.404 3.608-1.404 3.607-1.404 3.607-1.404 3.607-1.403 3.608-1.404 3.607-1.404 3.607-1.404 3.607-1.403" fill="none" stroke="#ff7f0e" stroke-linecap="square" stroke-width="1.5" id="line2d_30"/><path clip-path="url(#pee2907ade4)" d="M30.188 68.864l3.608 5.381 3.607 5.272 3.607 5.163 3.608 5.052 3.607 4.942 3.607 4.833 3.607 4.723 3.608 4.613 3.607 4.503 3.607 4.393 3.607 4.284 3.608 4.174 3.607 4.063 3.607 3.954 3.608 3.845 3.607 3.734 3.607 3.624 3.607 3.515 3.608 3.405 3.607 3.295 3.607 3.185 3.607 3.075 3.608 2.966 3.607 2.855 3.607 2.746 3.608 2.636 3.607 2.526 3.607 2.417 3.607 2.306 3.608 2.197 3.607 2.087 3.607 1.977 3.607 1.867 3.608 1.757 3.607 1.648 3.607 1.537 3.608 1.428 3.607 1.318 3.607 1.208 3.607 1.099 3.608.988 3.607.879 3.607.769 3.607.659 3.608.549 3.607.44 3.607.329 3.608.22 3.607.11h3.607l3.607-.11 3.608-.22 3.607-.33 3.607-.439 3.607-.55 3.608-.658 3.607-.769 3.607-.879 3.608-.988 3.607-1.099 3.607-1.208 3.607-1.318 3.608-1.428 3.607-1.537 3.607-1.648 3.607-1.757 3.608-1.867 3.607-1.977 3.607-2.087 3.608-2.197 3.607-2.306 3.607-2.417 3.607-2.526 3.608-2.636 3.607-2.746 3.607-2.855 3.607-2.966 3.608-3.075 3.607-3.185 3.607-3.295 3.608-3.405 3.607-3.515 3.607-3.624 3.607-3.734 3.608-3.845 3.607-3.954 3.607-4.063 3.607-4.174 3.608-4.284 3.607-4.393 3.607-4.503 3.608-4.613 3.607-4.723 3.607-4.833 3.607-4.942 3.608-5.052 3.607-5.163 3.607-5.272 3.607-5.381" fill="none" stroke="#2ca02c" stroke-linecap="square" stroke-width="1.5" id="line2d_31"/><path clip-path="url(#pee2907ade4)" d="M30.188 264.712l3.608-12.543 3.607-11.906 3.607-11.283 3.608-10.673 3.607-10.075 3.607-9.49 3.607-8.92 3.608-8.363 3.607-7.817 3.607-7.286 3.607-6.767 3.608-6.262 3.607-5.77 3.607-5.29 3.608-4.824 3.607-4.371 3.607-3.932 3.607-3.505 3.608-3.092 3.607-2.691 3.607-2.304 3.607-1.93 3.608-1.569 3.607-1.22 3.607-.887 3.608-.565 3.607-.256 3.607.04 3.607.32 3.608.591 3.607.846 3.607 1.09 3.607 1.319 3.608 1.535 3.607 1.74 3.607 1.929 3.608 2.107 3.607 2.27 3.607 2.422 3.607 2.56 3.608 2.684 3.607 2.796 3.607 2.894 3.607 2.98 3.608 3.051 3.607 3.111 3.607 3.157 3.608 3.19 3.607 3.209 3.607 3.216 3.607 3.21 3.608 3.189 3.607 3.157 3.607 3.11 3.607 3.052 3.608 2.98 3.607 2.894 3.607 2.796 3.608 2.684 3.607 2.56 3.607 2.421 3.607 2.271 3.608 2.107 3.607 1.93 3.607 1.738 3.607 1.536 3.608 1.319 3.607 1.09 3.607.846 3.608.59 3.607.322 3.607.039 3.607-.256 3.608-.565 3.607-.886 3.607-1.221 3.607-1.57 3.608-1.93 3.607-2.303 3.607-2.691 3.608-3.092 3.607-3.505 3.607-3.932 3.607-4.371 3.608-4.825 3.607-5.29 3.607-5.77 3.607-6.261 3.608-6.767 3.607-7.286 3.607-7.817 3.608-8.362 3.607-8.92 3.607-9.491 3.607-10.076 3.608-10.672 3.607-11.283 3.607-11.906 3.607-12.543" fill="none" stroke="#d62728" stroke-linecap="square" stroke-width="1.5" id="line2d_32"/><path clip-path="url(#pee2907ade4)" d="M30.188 38.216l3.608 23.226 3.607 21.119 3.607 19.112 3.608 17.205 3.607 15.394 3.607 13.678 3.607 12.055 3.608 10.523 3.607 9.078 3.607 7.72 3.607 6.446 3.608 5.254 3.607 4.142 3.607 3.109 3.608 2.15 3.607 1.267 3.607.453 3.607-.29 3.608-.967 3.607-1.577 3.607-2.125 3.607-2.611 3.608-3.04 3.607-3.41 3.607-3.726 3.608-3.99 3.607-4.202 3.607-4.367 3.607-4.486 3.608-4.56 3.607-4.59 3.607-4.584 3.607-4.538 3.608-4.456 3.607-4.34 3.607-4.194 3.608-4.017 3.607-3.814 3.607-3.584 3.607-3.332 3.608-3.06 3.607-2.766 3.607-2.458 3.607-2.134 3.608-1.798 3.607-1.45 3.607-1.096 3.608-.734 3.607-.368h3.607l3.607.368 3.608.734 3.607 1.095 3.607 1.451 3.607 1.798 3.608 2.134 3.607 2.458 3.607 2.767 3.608 3.059 3.607 3.332 3.607 3.584 3.607 3.814 3.608 4.017 3.607 4.194 3.607 4.34 3.607 4.456 3.608 4.538 3.607 4.583 3.607 4.592 3.608 4.56 3.607 4.485 3.607 4.367 3.607 4.203 3.608 3.99 3.607 3.725 3.607 3.41 3.607 3.04 3.608 2.611 3.607 2.125 3.607 1.577 3.608.966 3.607.29 3.607-.452 3.607-1.266 3.608-2.151 3.607-3.109 3.607-4.142 3.607-5.254 3.608-6.446 3.607-7.72 3.607-9.078 3.608-10.523 3.607-12.055 3.607-13.678 3.607-15.394 3.608-17.205 3.607-19.112 3.607-21.119 3.607-23.226" fill="none" stroke="#9467bd" stroke-linecap="square" stroke-width="1.5" id="line2d_33"/><path clip-path="url(#pee2907ade4)" d="M30.188 291.626l3.608-37.545 3.607-32.292 3.607-27.469 3.608-23.054 3.607-19.032 3.607-15.379 3.607-12.078 3.608-9.112 3.607-6.46 3.607-4.107 3.607-2.034 3.608-.226 3.607 1.333 3.607 2.662 3.608 3.774 3.607 4.683 3.607 5.406 3.607 5.956L98.727 133l3.607 6.593 3.607 6.704 3.607 6.697 3.608 6.58 3.607 6.367 3.607 6.07 3.608 5.695 3.607 5.258 3.607 4.766 3.607 4.23 3.608 3.656 3.607 3.058 3.607 2.44 3.607 1.809 3.608 1.177 3.607.547 3.607-.072 3.608-.676 3.607-1.258 3.607-1.812 3.607-2.335 3.608-2.822 3.607-3.267 3.607-3.67 3.607-4.023 3.608-4.33 3.607-4.58 3.607-4.78 3.608-4.923 3.607-5.01 3.607-5.037 3.607-5.009 3.608-4.922 3.607-4.78 3.607-4.582 3.607-4.329 3.608-4.024 3.607-3.67 3.607-3.267 3.608-2.821 3.607-2.335 3.607-1.812 3.607-1.258 3.608-.676 3.607-.072 3.607.547 3.607 1.177 3.608 1.81 3.607 2.439 3.607 3.057 3.608 3.657 3.607 4.23 3.607 4.766 3.607 5.258 3.608 5.696 3.607 6.068 3.607 6.368 3.607 6.58 3.608 6.696 3.607 6.705 3.607 6.592 3.608 6.347 3.607 5.957 3.607 5.406 3.607 4.683 3.608 3.773 3.607 2.662 3.607 1.334 3.607-.226 3.608-2.035 3.607-4.106 3.607-6.46 3.608-9.112 3.607-12.078 3.607-15.38 3.607-19.03 3.608-23.056 3.607-27.468 3.607-32.292 3.607-37.545" fill="none" stroke="#8c564b" stroke-linecap="square" stroke-width="1.5" id="line2d_34"/><path d="M30.188 291.626V25.514" fill="none" stroke="#969696" stroke-linecap="square" stroke-width=".3" id="patch_3"/><path d="M387.308 291.626V25.514" fill="none" stroke="#969696" stroke-linecap="square" stroke-width=".3" id="patch_4"/><g id="text_15"><defs><path d="M49.219 0h-8.844v32.172q0 7.422-2.594 10.578-2.578 3.156-8.578 3.156-5.906 0-9.875-4.5-3.953-4.484-3.953-12.89V0H6.594v52.297h8.297v-7.375h.203q6.203 8.89 15.812 8.89 8.89 0 13.594-4.718 4.719-4.703 4.719-13.5z" id="HelveticaWorld-Regular-110"/><path d="M54.594 31.578H4v7.328h50.594zm0-20H4v7.328h50.594z" id="HelveticaWorld-Regular-61"/></defs><g transform="matrix(.14 0 0 -.14 390.88 122.027)" fill="#1f77b4"><use xlink:href="#HelveticaWorld-Regular-110"/><use x="55.176" xlink:href="#HelveticaWorld-Regular-61"/><use x="113.77" xlink:href="#HelveticaWorld-Regular-48"/></g></g><g transform="matrix(.14 0 0 -.14 390.88 92.66)" fill="#ff7f0e" id="text_16"><use xlink:href="#HelveticaWorld-Regular-110"/><use x="55.176" xlink:href="#HelveticaWorld-Regular-61"/><use x="113.77" xlink:href="#HelveticaWorld-Regular-49"/></g><g transform="matrix(.14 0 0 -.14 390.88 72.439)" fill="#2ca02c" id="text_17"><use xlink:href="#HelveticaWorld-Regular-110"/><use x="55.176" xlink:href="#HelveticaWorld-Regular-61"/><use x="113.77" xlink:href="#HelveticaWorld-Regular-50"/></g><g id="text_18"><defs><path d="M22.406 39.984q2.203-.187 4.594-.187 6.203 0 9.781 2.86 3.594 2.859 3.594 8.656 0 4.687-3.344 7.89-3.343 3.203-9.64 3.203-6.985 0-10.235-4.11-3.234-4.093-3.437-10.983h-8.64q0 10.984 5.765 16.984 5.765 6.016 16.937 6.016 9.922 0 15.828-5.11 5.907-5.094 5.907-13.39 0-10.704-9.032-14.5v-.204q11.72-4 11.72-16.406 0-9.906-6.595-16.265-6.593-6.344-18.703-6.344-9.906 0-16.312 5.203Q4.204 8.5 3.422 21.484H12.5q.203-8.109 4-11.797Q20.313 6 27.484 6q6.938 0 11.141 3.86 4.203 3.859 4.203 9.718 0 6.406-4.016 9.672-4 3.266-12.39 3.266-2 0-4.016-.094z" id="HelveticaWorld-Regular-51"/></defs><g transform="matrix(.14 0 0 -.14 390.88 56.295)" fill="#d62728"><use xlink:href="#HelveticaWorld-Regular-110"/><use x="55.176" xlink:href="#HelveticaWorld-Regular-61"/><use x="113.77" xlink:href="#HelveticaWorld-Regular-51"/></g></g><g id="text_19"><defs><path d="M10.594 24.703h22.61v31.89h-.188zM42 17.093V0h-8.797v17.094H2.484v8.593L34.72 70.314H42v-45.61h10.297v-7.61z" id="HelveticaWorld-Regular-52"/></defs><g transform="matrix(.14 0 0 -.14 390.88 42.295)" fill="#9467bd"><use xlink:href="#HelveticaWorld-Regular-110"/><use x="55.176" xlink:href="#HelveticaWorld-Regular-61"/><use x="113.77" xlink:href="#HelveticaWorld-Regular-52"/></g></g><g transform="matrix(.14 0 0 -.14 390.88 28.295)" fill="#8c564b" id="text_20"><use xlink:href="#HelveticaWorld-Regular-110"/><use x="55.176" xlink:href="#HelveticaWorld-Regular-61"/><use x="113.77" xlink:href="#HelveticaWorld-Regular-53"/></g><g id="text_21"><defs><path d="M11.766 23.094v-4.875q0-5.813 2.562-8.828 2.563-3 8.235-3 5.906 0 8.703 3.093 2.812 3.11 2.812 9.313V71.78h9.719v-52.39q0-10.313-5.469-15.813-5.469-5.484-15.234-5.484-9.61 0-15.016 4.906-5.39 4.906-5.39 13.11v6.984z" id="HelveticaWorld-Regular-74"/><path d="M38.375 26.703q-.969-1.015-3.828-1.656-2.86-.625-10.672-1.656-5.766-.688-8.469-2.844-2.703-2.14-2.703-5.656 0-4.297 2.281-6.688 2.297-2.39 7.329-2.39 6.296 0 11.171 3.578 4.891 3.593 4.891 8.718zM6.203 36.375q.297 8.844 5.734 13.14 5.454 4.297 15.844 4.297 8.297 0 13.907-3.765 5.624-3.75 5.624-10.844V9.078Q47.313 6 50.094 6q1.125 0 2.89.39V0Q50.594-.984 48-.984q-4.5 0-6.703 1.921-2.188 1.938-2.281 6.047-7.516-8.5-18.891-8.5-7.422 0-11.922 4.204Q3.72 6.89 3.72 13.624q0 6.89 3.906 11.125Q11.531 29 19 29.89l15.516 1.891q4.203.64 4.203 6.203 0 4.11-3.047 6.297-3.047 2.203-9.25 2.203-5.516 0-8.485-2.437-2.953-2.438-3.53-7.672z" id="HelveticaWorld-Regular-97"/><path d="M39.594 34.719q-1.89 11.187-12.39 11.187-6.5 0-10.454-5.203-3.953-5.203-3.953-14.484 0-10.11 3.656-15.11 3.672-5 10.64-5 4.688 0 8.11 3.438 3.422 3.437 4.39 8.953h8.5q-1.312-9.703-6.859-14.86-5.547-5.156-14.328-5.156-10.297 0-16.89 7.047-6.594 7.063-6.594 19.172 0 13.281 6.594 21.188 6.593 7.922 18.5 7.922 8.687 0 13.843-5.204 5.157-5.203 5.735-13.89z" id="HelveticaWorld-Regular-99"/><path d="M12.703 26.219q0-8.735 3.953-14.375 3.953-5.64 11.219-5.64 7.531 0 11.438 5.905 3.906 5.907 3.906 14.11 0 8.297-3.907 14.078-3.906 5.797-11.437 5.797-6.969 0-11.078-5.453-4.094-5.438-4.094-14.422zm-8.984 0q0 11.672 6.484 19.625 6.5 7.968 17.672 7.968 11.438 0 17.875-8.062 6.453-8.047 6.453-19.531 0-11.516-6.406-19.625-6.39-8.11-17.922-8.11-11.078 0-17.625 7.86-6.531 7.86-6.531 19.875z" id="HelveticaWorld-Regular-111"/><path d="M43.406 26.313q0 10.5-3.718 15.046-3.704 4.547-10.579 4.547-6.984-.11-10.562-5.453Q14.984 35.11 14.984 25q0-10.297 4.297-14.594Q23.578 6.11 29.297 6.11q6.5 0 10.297 5.344 3.812 5.344 3.812 14.86zM6.594 0v71.781h8.781V45.703h.203q5.61 8.11 15.14 8.11 9.766 0 15.766-7.25t6-18.876q0-13.093-6.062-21.156Q40.375-1.516 29.5-1.516q-9.578 0-14.406 8.016h-.203V0z" id="HelveticaWorld-Regular-98"/><path d="M6.594 61.813v9.968h8.781v-9.969zM15.375 0H6.594v52.297h8.781z" id="HelveticaWorld-Regular-105"/><path d="M14.984 23.688q0-8.407 4.094-13 4.11-4.579 10.219-4.579 6.687 0 10.39 5.438 3.72 5.453 3.72 14.765 0 10.22-3.563 14.907-3.563 4.687-10.735 4.687-6.984 0-10.562-5.5-3.563-5.5-3.563-16.718zm-8.39 28.609h8.297v-7.375h.203q5.61 8.89 15.625 8.89 10.11 0 15.937-7.359 5.828-7.344 5.828-18.766 0-12.796-5.953-21Q40.578-1.515 29.5-1.515q-9.094 0-13.922 7.032h-.203v-26.22H6.594z" id="HelveticaWorld-Regular-112"/><path d="M15.375 0H6.594v71.781h8.781z" id="HelveticaWorld-Regular-108"/><path d="M39.016 52.297h9.562L29.891.984q-.5-1.375-.985-2.593-4.25-11.329-7.328-15.547-3.078-4.235-9.953-4.235-3.61 0-5.906.782v8.015q2.484-.89 5.468-.89 3.22 0 4.704 2.03 1.5 2.032 4.421 9.938L.875 52.297h9.922L24.812 9.719H25z" id="HelveticaWorld-Regular-121"/><path d="M6.594 52.297h8.297v-7.375h.203q5.906 8.89 15.812 8.89 9.813 0 13.922-8.5 3.75 4.594 7.266 6.547 3.515 1.953 8.703 1.953 6.781 0 11.484-4.453Q77 44.922 77 36.187V0h-8.781v33.797q0 6.094-2.297 9.094-2.297 3.015-7.422 3.015-5.172 0-8.75-4.203-3.563-4.203-3.563-9.812V0h-8.78v36.188q0 4.53-2.11 7.124-2.094 2.594-6.094 2.594-6.297 0-10.062-4.687-3.766-4.688-3.766-12.703V0H6.594z" id="HelveticaWorld-Regular-109"/><path d="M36.078 37.406q-.187 4.688-3.344 6.735-3.14 2.047-9.047 2.047-4.296 0-7.359-1.907-3.047-1.89-3.047-5.468 0-2.829 1.797-4.172 1.813-1.344 7.828-2.86l8.688-2.187q7.906-2 11.297-5.11 3.406-3.093 3.406-8.656 0-7.719-5.64-12.531-5.641-4.813-15.063-4.813-11 0-16.64 4.563-5.626 4.578-5.735 13.75h8.5q.203-5.422 3.594-8.063 3.39-2.625 10.171-2.625 5.516 0 8.766 2.188 3.25 2.203 3.25 6.11 0 2.78-2.11 4.437-2.093 1.672-8.296 3.078l-10.203 2.5q-6.203 1.562-9.157 4.656-2.953 3.094-2.953 8.031 0 7.72 5.516 12.203 5.531 4.5 14.406 4.5 9.485 0 14.531-4.624 5.047-4.61 5.344-11.782z" id="HelveticaWorld-Regular-115"/><path d="M29.781 73.297q-8.875-15.875-11.218-25.844-2.344-9.953-2.344-21.969 0-11.859 3.187-22.125Q22.61-6.89 29.891-20.703h-5.86Q15.72-8.593 11.25 2.187 6.781 12.985 6.781 26.125q0 12.36 4.047 23.563 4.063 11.203 12.86 23.609z" id="HelveticaWorld-Regular-40"/><path d="M41.89 26.703q0 7.922-3.859 13.61Q34.188 46 27.484 46q-6.875 0-10.687-5.297-3.813-5.297-3.813-14.094 0-9.328 3.954-14.922 3.968-5.578 10.75-5.578 6.296 0 10.25 6.25 3.953 6.25 3.953 14.344zm8.891-15.719q0-2.187.563-3.203.562-1 2.375-1 1.36 0 2.781.297V-.484q-1.719-.641-5.078-.641-4.016 0-6.484 2.219-2.454 2.234-2.75 7.89h-.297q-2.188-4.78-6.688-7.687-4.484-2.906-10-2.906-9.484 0-15.39 7.765-5.907 7.766-5.907 19.532 0 12.593 6 20.359 6.016 7.766 16.313 7.766 9.86 0 15.578-9.813H42v8.297h8.781z" id="HelveticaWorld-Regular-945"/><path d="M8.688 10.594h10.406V.78q0-7.422-3.078-11.172-3.078-3.765-7.328-4.312v4.594Q14.015-9.422 14.015 0H8.687z" id="HelveticaWorld-Regular-44"/><path d="M15.094 12.016Q20.219 6.203 29 6.203q7.078 0 11.453 3.953 4.375 3.953 4.375 10.36 0 6.687-4.516 10.437-4.515 3.766-12.328 3.766-1.859 0-4.297-.297V42q2-.297 3.61-.203 6.203 0 9.86 3.25 3.671 3.25 3.671 9.062 0 4.97-3.281 8.016-3.266 3.063-9.031 3.063-7.032 0-10.235-4.063-3.187-4.047-3.187-12.64v-36.47zm-8.797-32.72v69.579q0 10.75 5.86 17.328 5.859 6.594 16.75 6.594 9.077 0 14.843-4.86 5.766-4.843 5.766-13.156Q49.516 44 37.89 39.11v-.093q7.718-1.516 11.859-6.422 4.156-4.907 4.156-11.688 0-9.625-6.765-16.031-6.766-6.39-16.72-6.39-9.124 0-15.327 5.906v-25.094z" id="HelveticaWorld-Regular-946"/><path d="M12.984 26.313q0-9.61 3.813-14.907Q20.609 6.11 27.094 6.11q6.312 0 10.312 4.579 4 4.593 4 13 0 11.03-3.5 16.625-3.484 5.593-10.61 5.593-7.171 0-10.75-4.765-3.562-4.766-3.562-14.828zM49.812 2.983q0-12.609-6.062-18.797-6.047-6.203-18.266-6.203-8.78 0-13.984 4.047Q6.297-13.922 5.516-6.39h8.796q.672-3.812 3.532-6.062 2.86-2.25 8.281-2.25 7.375 0 11.125 3.969 3.766 3.953 3.766 12.828v3.719h-.188q-4.937-7.329-13.922-7.329-11.187 0-17.093 8.25-5.907 8.25-5.907 20.953 0 11.625 5.953 18.875 5.97 7.25 15.829 7.25 9.906 0 15.625-8.89h.187v7.375h8.313z" id="HelveticaWorld-Regular-103"/><path d="M15.375 0H6.594v52.297h8.297v-8.688h.203q5.703 10.203 14.687 10.203 1.422 0 2.297-.296V44.39h-3.266q-5.906 0-9.671-4.016-3.766-4-3.766-9.953z" id="HelveticaWorld-Regular-114"/><path d="M3.516-20.703q8.796 15.922 11.14 25.86Q17 15.093 17 27.093q0 11.922-3.156 22.172T3.422 73.296h5.765q8.391-12.109 12.86-22.905 4.469-10.797 4.469-23.875 0-12.407-4.063-23.61-4.047-11.203-12.828-23.61z" id="HelveticaWorld-Regular-41"/></defs><g transform="matrix(.168 0 0 -.168 36.18 19.514)" fill="#969696"><use xlink:href="#HelveticaWorld-Regular-74"/><use x="49.574" xlink:href="#HelveticaWorld-Regular-97"/><use x="104.506" xlink:href="#HelveticaWorld-Regular-99"/><use x="155.775" xlink:href="#HelveticaWorld-Regular-111"/><use x="211.684" xlink:href="#HelveticaWorld-Regular-98"/><use x="268.178" xlink:href="#HelveticaWorld-Regular-105"/><use x="290.199" xlink:href="#HelveticaWorld-Regular-32"/><use x="314.613" xlink:href="#HelveticaWorld-Regular-112"/><use x="371.107" xlink:href="#HelveticaWorld-Regular-111"/><use x="427.016" xlink:href="#HelveticaWorld-Regular-108"/><use x="449.037" xlink:href="#HelveticaWorld-Regular-121"/><use x="498.646" xlink:href="#HelveticaWorld-Regular-110"/><use x="553.822" xlink:href="#HelveticaWorld-Regular-111"/><use x="609.73" xlink:href="#HelveticaWorld-Regular-109"/><use x="692.738" xlink:href="#HelveticaWorld-Regular-105"/><use x="714.76" xlink:href="#HelveticaWorld-Regular-97"/><use x="769.691" xlink:href="#HelveticaWorld-Regular-108"/><use x="791.713" xlink:href="#HelveticaWorld-Regular-115"/><use x="841.713" xlink:href="#HelveticaWorld-Regular-32"/><use x="866.127" xlink:href="#HelveticaWorld-Regular-40"/><use x="899.428" xlink:href="#HelveticaWorld-Regular-945"/><use x="957.973" xlink:href="#HelveticaWorld-Regular-61"/><use x="1016.566" xlink:href="#HelveticaWorld-Regular-48"/><use x="1072.182" xlink:href="#HelveticaWorld-Regular-44"/><use x="1099.965" xlink:href="#HelveticaWorld-Regular-32"/><use x="1124.379" xlink:href="#HelveticaWorld-Regular-946"/><use x="1181.166" xlink:href="#HelveticaWorld-Regular-61"/><use x="1239.76" xlink:href="#HelveticaWorld-Regular-48"/><use x="1295.375" xlink:href="#HelveticaWorld-Regular-44"/><use x="1323.158" xlink:href="#HelveticaWorld-Regular-32"/><use x="1347.572" xlink:href="#HelveticaWorld-Regular-115"/><use x="1397.572" xlink:href="#HelveticaWorld-Regular-99"/><use x="1448.842" xlink:href="#HelveticaWorld-Regular-97"/><use x="1503.773" xlink:href="#HelveticaWorld-Regular-108"/><use x="1525.795" xlink:href="#HelveticaWorld-Regular-105"/><use x="1547.816" xlink:href="#HelveticaWorld-Regular-110"/><use x="1602.992" xlink:href="#HelveticaWorld-Regular-103"/><use x="1658.9" xlink:href="#HelveticaWorld-Regular-61"/><use x="1717.494" xlink:href="#HelveticaWorld-Regular-110"/><use x="1772.67" xlink:href="#HelveticaWorld-Regular-111"/><use x="1828.578" xlink:href="#HelveticaWorld-Regular-114"/><use x="1861.146" xlink:href="#HelveticaWorld-Regular-109"/><use x="1944.154" xlink:href="#HelveticaWorld-Regular-97"/><use x="1999.086" xlink:href="#HelveticaWorld-Regular-108"/><use x="2021.107" xlink:href="#HelveticaWorld-Regular-41"/></g></g></g></g><defs><clipPath id="pee2907ade4"><path d="M30.188 25.514h357.12v266.112H30.188z"/></clipPath></defs></svg>